<?xml version="1.0" encoding="UTF-8"?> <svg xmlns="http://www.w3.org/2000/svg" width="850" height="165" xml:space="preserve" version="1.1"> <g> <title>Layer 1</title> <g id="Background"></g> <g id="Logos_and_symbols"> <g id="SYMBOL_VER_3"></g> <g id="SYMBOL_VER_3_3_"></g> <g id="SYMBOL_VER_4"></g> <g id="SYMBOL_VER_4_1_"> <g id="SYMBOL_VER_4_3_"></g> </g> <g id="SYMBOL_VER_5_1_"></g> <g id="off_2_1_"></g> <g id="VER_3_1_"> <g id="SYMBOL_VER_2_1_"></g> </g> <g id="VER_3"> <g id="SYMBOL_VER_2"></g> </g> <g id="off_2"></g> <g id="SYMBOL_VER_5"></g> <g id="SYMBOL_VER_1"></g> <g id="SYMBOL_VER_1_1_"></g> <g id="SYMBOL_VER_1-1_3_"></g> <g id="SYMBOL_VER_1-1_2_"></g> <g id="SYMBOL_VER_1-1"></g> <g id="SYMBOL_VER_1-1_1_"> <g id="_x31_-3"></g> <g id="Symbol_-_Original_14_"></g> <g id="Symbol_-_Original_13_"></g> <g id="Symbol_-_Original_6_"></g> <g id="Symbol_-_Original_4_"></g> <g id="One_color_version_-_White_3_"> <g id="Symbol_-_Original_15_"></g> </g> <g id="One_color_version_-_White"> <g id="Symbol_-_Original"></g> </g> <g id="Symbol_-_Monochromatic_3_"> <g id="_x33__7_"></g> </g> <g id="Symbol_-_Monochromatic"> <g id="_x33__3_"></g> </g> <g id="_x33__2_"></g> <g id="_x33__1_"></g> <g id="_x33_"></g> <g id="Symbol_-_Original_10_"> <path id="svg_1" d="m93.2425,75.706l11.935,-20.252l32.17,50.105l0.015,9.616l-0.105,-66.169c-0.076,-1.618 -0.935,-3.098 -2.305,-3.971l-57.918,-33.314c-1.354,-0.666 -3.073,-0.658 -4.425,0.021c-0.183,0.092 -0.354,0.191 -0.518,0.3l-0.202,0.127l-56.219,32.578l-0.218,0.1c-0.281,0.128 -0.564,0.293 -0.831,0.483c-1.066,0.764 -1.774,1.895 -2.003,3.162c-0.034,0.192 -0.06,0.388 -0.071,0.586l0.088,53.921l29.965,-46.443c3.772,-6.158 11.992,-8.143 19.623,-8.034l8.955,0.236l-52.767,84.623l6.22,3.581l53.399,-88.118l23.603,-0.086l-53.261,90.342l22.195,12.767l2.652,1.524c1.122,0.456 2.444,0.479 3.575,0.07l58.732,-34.036l-11.229,6.507l-31.055,-50.226zm4.553,65.585l-22.417,-35.185l13.685,-23.222l29.441,46.405l-20.709,12.002z" fill="#2D374B"></path> <polygon id="svg_2" points="75.37750244140625,106.10700356960297 97.79550170898438,141.2909940481186 118.50350952148438,129.29000222682953 89.0625,82.88500344753265 " fill="#28A0F0"></polygon> <path id="svg_3" d="m137.3625,115.176l-0.015,-9.616l-32.17,-50.105l-11.935,20.252l31.056,50.226l11.229,-6.507c1.101,-0.894 1.768,-2.207 1.838,-3.623l-0.003,-0.627z" fill="#28A0F0"></path> <path id="svg_4" d="m2.5545,124.244l15.857,9.137l52.767,-84.623l-8.955,-0.236c-7.63,-0.108 -15.85,1.876 -19.623,8.034l-29.965,46.443l-10.081,15.489l0,5.756z" fill="#FFFFFF"></path> <polygon id="svg_5" points="101.63349914550781,48.7580007314682 78.03050231933594,48.84399926662445 24.631500244140625,136.96199929714203 43.29650115966797,147.70800149440765 48.37150573730469,139.09999978542328 " fill="#FFFFFF"></polygon> <path id="svg_6" d="m147.3085,48.636c-0.197,-4.936 -2.87,-9.454 -7.056,-12.085l-58.677,-33.744c-4.141,-2.085 -9.314,-2.088 -13.463,-0.001c-0.49,0.247 -57.062,33.057 -57.062,33.057c-0.783,0.375 -1.537,0.822 -2.246,1.33c-3.737,2.679 -6.015,6.841 -6.25,11.413l0,69.883l10.081,-15.489l-0.088,-53.922c0.012,-0.197 0.037,-0.392 0.071,-0.583c0.228,-1.269 0.937,-2.4 2.003,-3.165c0.267,-0.19 57.804,-33.496 57.987,-33.588c1.353,-0.679 3.071,-0.687 4.425,-0.021l57.918,33.314c1.37,0.873 2.229,2.353 2.305,3.971l0,66.795c-0.07,1.416 -0.63,2.729 -1.731,3.623l-11.229,6.507l-5.794,3.358l-20.708,12.001l-21.001,12.17c-1.131,0.409 -2.454,0.386 -3.575,-0.07l-24.847,-14.291l-5.076,8.608l22.33,12.856c0.738,0.42 1.396,0.792 1.936,1.096c0.836,0.469 1.406,0.782 1.607,0.88c1.587,0.771 3.87,1.219 5.928,1.219c1.886,0 3.726,-0.346 5.467,-1.028l60.999,-35.325c3.501,-2.713 5.561,-6.804 5.746,-11.235l0,-67.534z" fill="#96BEDC"></path> </g> <g id="Symbol_-_Original_1_"></g> <g id="Symbol_-_Original_2_"></g> <g id="_x34__1_"></g> <g id="Symbol_-_Monochromatic_2_"> <g id="_x33__6_"></g> </g> <g id="One_color_version_-_White_2_"> <g id="Symbol_-_Original_11_"></g> </g> <g id="Symbol_-_Original_5_"> <g id="Symbol_-_Original_12_"></g> </g> <g id="One_color_version_-_White_1_"> <g id="Symbol_-_Original_9_"></g> </g> </g> <g id="SYMBOL_VER_1_2_"> <g id="SYMBOL_VER_2_4_"></g> <g id="SYMBOL_VER_2-1-1_1_"></g> <g id="SYMBOL_VER_2-2-1_1_"></g> <g id="SYMBOL_VER_2-3-1_4_"></g> <g id="New_Symbol_1_"> <g id="SYMBOL_VER_2-3-1_3_"></g> </g> <g id="New_Symbol"> <g id="SYMBOL_VER_2-3-1_1_"></g> </g> </g> <g id="SYMBOL_VER_2_2_"></g> <g id="SYMBOL_VER_4_2_"></g> <g id="SYMBOL_VER_3_2_"></g> <g id="SYMBOL_VER_3_1_"></g> <g id="SYMBOL_VER_1-1-1_1_"></g> <g id="SYMBOL_VER_1-1-1"></g> <g id="SYMBOL_VER_1-1-1_2_2_"></g> <g id="SYMBOL_VER_1-1-1_2"></g> <g id="SYMBOL_VER_1-1-1_2_1_"></g> <g id="svg_7"> <path id="svg_8" d="m210.3255,57.697c1.758,0 3.238,0.359 4.441,1.076c1.203,0.718 2.383,2.117 3.541,4.2l22.977,41.719c0.23,0.463 0.289,0.845 0.174,1.146c-0.115,0.302 -0.451,0.451 -1.006,0.451l-8.816,0c-0.787,0 -1.318,-0.301 -1.598,-0.902l-4.928,-8.955l-32.625,0l-4.791,8.955c-0.324,0.602 -0.855,0.902 -1.596,0.902l-9.023,0c-0.604,0 -0.961,-0.149 -1.076,-0.451c-0.117,-0.301 -0.059,-0.683 0.172,-1.146l22.77,-41.719c1.156,-2.083 2.291,-3.482 3.402,-4.2c1.109,-0.717 2.404,-1.076 3.887,-1.076l4.095,0zm-13.467,30.682l23.879,0l-11.037,-20.339c-0.186,-0.323 -0.441,-0.486 -0.764,-0.486l-0.416,0c-0.324,0 -0.58,0.163 -0.764,0.486l-10.898,20.339z" fill="#2D364D"></path> <path id="svg_9" d="m314.1765,57.697c5.322,0 9.141,1.204 11.455,3.61c2.313,2.406 3.471,5.97 3.471,10.689l0,3.957c0,3.98 -0.811,7.127 -2.43,9.44c-1.621,2.314 -4.26,3.795 -7.914,4.442l11.871,14.717c0.23,0.232 0.299,0.579 0.207,1.041c-0.094,0.463 -0.463,0.694 -1.109,0.694l-8.955,0c-0.602,0 -1.02,-0.069 -1.25,-0.208c-0.232,-0.139 -0.463,-0.37 -0.693,-0.694l-10.969,-14.438l-22.422,0l0,13.813c0,1.019 -0.51,1.527 -1.527,1.527l-7.496,0c-1.064,0 -1.598,-0.509 -1.598,-1.527l0,-44.981c0,-1.389 0.695,-2.083 2.084,-2.083l37.275,0l0,0.001zm-28.738,24.782l26.588,0c2.359,0 4.025,-0.509 4.996,-1.527c0.973,-1.018 1.459,-2.568 1.459,-4.651l0,-2.915c0,-2.082 -0.486,-3.633 -1.459,-4.651c-0.971,-1.017 -2.637,-1.526 -4.996,-1.526l-25.686,0c-0.602,0 -0.902,0.277 -0.902,0.833l0,14.437z" fill="#2D364D"></path> <path id="svg_10" d="m406.7295,57.697c4.768,0 8.156,0.949 10.17,2.847s3.02,4.767 3.02,8.607l0,3.332c0,3.888 -1.48,6.826 -4.441,8.815c3.191,1.852 4.789,4.837 4.789,8.955l0,4.026c0,1.852 -0.209,3.518 -0.625,4.998c-0.416,1.481 -1.1,2.741 -2.047,3.783c-0.949,1.041 -2.211,1.839 -3.783,2.395c-1.574,0.556 -3.518,0.833 -5.832,0.833l-41.232,0c-1.389,0 -2.084,-0.694 -2.084,-2.082l0,-44.427c0,-1.389 0.695,-2.083 2.084,-2.083l39.981,0l0,0.001zm-31.445,20.2l28.461,0c2.314,0 3.887,-0.347 4.721,-1.041c0.832,-0.694 1.25,-1.712 1.25,-3.055l0,-2.359c0,-1.435 -0.406,-2.487 -1.215,-3.159c-0.811,-0.67 -2.117,-1.006 -3.922,-1.006l-28.393,0c-0.602,0 -0.902,0.302 -0.902,0.902l0,9.718zm0,7.566l0,10.344c0,0.602 0.301,0.902 0.902,0.902l28.461,0c1.852,0 3.17,-0.336 3.957,-1.007c0.787,-0.67 1.18,-1.746 1.18,-3.228l0,-2.639c0,-1.434 -0.428,-2.521 -1.283,-3.262c-0.857,-0.74 -2.441,-1.111 -4.756,-1.111l-28.461,0l0,0.001z" fill="#2D364D"></path> <path id="svg_11" d="m464.3255,57.697c1.018,0 1.527,0.51 1.527,1.527l0,45.537c0,1.019 -0.51,1.527 -1.527,1.527l-7.498,0c-1.064,0 -1.596,-0.509 -1.596,-1.527l0,-45.537c0,-1.018 0.531,-1.527 1.596,-1.527l7.498,0z" fill="#2D364D"></path> <path id="svg_12" d="m555.2315,57.697c1.064,0 1.598,0.51 1.598,1.527l0,6.803c0,1.065 -0.533,1.597 -1.598,1.597l-21.797,0l0,37.138c0,1.019 -0.51,1.527 -1.527,1.527l-7.566,0c-1.018,0 -1.525,-0.509 -1.525,-1.527l0,-37.138l-21.797,0c-1.066,0 -1.598,-0.531 -1.598,-1.597l0,-6.803c0,-1.018 0.531,-1.527 1.598,-1.527l54.212,0z" fill="#2D364D"></path> <path id="svg_13" d="m629.6865,57.697c5.322,0 9.141,1.204 11.455,3.61c2.313,2.406 3.471,5.97 3.471,10.689l0,3.957c0,3.98 -0.811,7.127 -2.43,9.44c-1.621,2.314 -4.26,3.795 -7.914,4.442l11.871,14.717c0.23,0.232 0.299,0.579 0.207,1.041c-0.094,0.463 -0.463,0.694 -1.109,0.694l-8.955,0c-0.602,0 -1.02,-0.069 -1.25,-0.208c-0.232,-0.139 -0.463,-0.37 -0.693,-0.694l-10.969,-14.438l-22.422,0l0,13.813c0,1.019 -0.51,1.527 -1.527,1.527l-7.496,0c-1.064,0 -1.598,-0.509 -1.598,-1.527l0,-44.981c0,-1.389 0.695,-2.083 2.084,-2.083l37.275,0l0,0.001zm-28.738,24.782l26.588,0c2.359,0 4.025,-0.509 4.996,-1.527c0.973,-1.018 1.459,-2.568 1.459,-4.651l0,-2.915c0,-2.082 -0.486,-3.633 -1.459,-4.651c-0.971,-1.017 -2.637,-1.526 -4.996,-1.526l-25.686,0c-0.602,0 -0.902,0.277 -0.902,0.833l0,14.437z" fill="#2D364D"></path> <path id="svg_14" d="m688.2525,57.697c1.018,0 1.527,0.51 1.527,1.527l0,27.697c0,1.852 0.15,3.391 0.451,4.616c0.301,1.227 0.799,2.198 1.492,2.915c0.695,0.719 1.633,1.228 2.813,1.527c1.18,0.302 2.672,0.451 4.477,0.451l19.229,0c1.805,0 3.297,-0.149 4.477,-0.451c1.182,-0.3 2.117,-0.809 2.813,-1.527c0.693,-0.717 1.18,-1.688 1.457,-2.915c0.277,-1.226 0.416,-2.765 0.416,-4.616l0,-27.697c0,-1.018 0.51,-1.527 1.527,-1.527l7.566,0c1.018,0 1.527,0.51 1.527,1.527l0,28.738c0,3.332 -0.346,6.167 -1.041,8.504c-0.693,2.337 -1.816,4.234 -3.367,5.692c-1.551,1.457 -3.563,2.511 -6.039,3.158c-2.475,0.648 -5.473,0.972 -8.988,0.972l-19.992,0c-3.518,0 -6.502,-0.323 -8.955,-0.972c-2.453,-0.647 -4.455,-1.701 -6.004,-3.158c-1.551,-1.458 -2.686,-3.355 -3.402,-5.692s-1.076,-5.172 -1.076,-8.504l0,-28.738c0,-1.018 0.531,-1.527 1.598,-1.527l7.494,0z" fill="#2D364D"></path> <path id="svg_15" d="m787.4695,57.697c1.018,0 1.896,0.069 2.637,0.209c0.74,0.139 1.389,0.405 1.943,0.798c0.557,0.394 1.053,0.927 1.492,1.597c0.439,0.671 0.891,1.562 1.355,2.673l14.438,33.319c0.184,0.417 0.51,0.625 0.973,0.625l0.832,0c0.463,0 0.787,-0.208 0.973,-0.625l14.438,-33.319c0.463,-1.111 0.914,-2.002 1.354,-2.673c0.439,-0.67 0.938,-1.203 1.492,-1.597c0.557,-0.393 1.191,-0.659 1.91,-0.798c0.717,-0.14 1.584,-0.209 2.604,-0.209l7.428,0c2.404,0 4.025,0.545 4.857,1.632c0.834,1.088 1.25,2.95 1.25,5.588l0,39.845c0,1.019 -0.531,1.527 -1.596,1.527l-7.08,0c-1.02,0 -1.527,-0.509 -1.527,-1.527l0,-36.235c0,-0.462 -0.186,-0.694 -0.557,-0.694l-0.625,0c-0.463,0 -0.764,0.186 -0.902,0.556l-14.021,31.099c-0.555,1.249 -1.123,2.303 -1.701,3.158c-0.578,0.857 -1.203,1.563 -1.873,2.117c-0.672,0.556 -1.436,0.949 -2.291,1.181c-0.857,0.231 -1.863,0.347 -3.02,0.347l-3.332,0c-1.158,0 -2.164,-0.115 -3.02,-0.347c-0.857,-0.231 -1.621,-0.625 -2.291,-1.181c-0.672,-0.555 -1.297,-1.26 -1.875,-2.117c-0.578,-0.855 -1.145,-1.909 -1.699,-3.158l-14.023,-31.099c-0.139,-0.37 -0.439,-0.556 -0.902,-0.556l-0.625,0c-0.371,0 -0.555,0.232 -0.555,0.694l0,36.235c0,1.019 -0.51,1.527 -1.527,1.527l-7.08,0c-1.064,0 -1.598,-0.509 -1.598,-1.527l0,-39.845c0,-2.638 0.418,-4.5 1.25,-5.588c0.834,-1.087 2.475,-1.632 4.93,-1.632l7.564,0z" fill="#2D364D"></path> </g> <g id="Symbol_-_Original_7_"></g> <g id="Symbol_-_Original_8_"></g> <g id="SYMBOL_VER_2-1-1"></g> <g id="SYMBOL_VER_2-2-1"></g> <g id="SYMBOL_VER_2-3-1"></g> <g id="SYMBOL_VER_5-1_1_"></g> <g id="SYMBOL_VER_5-1"></g> <g id="SYMBOL_VER_5-2_1_"></g> <g id="SYMBOL_VER_5-2"></g> <g id="Symbol_-_Monochromatic_1_"> <g id="_x33__4_"></g> </g> </g> </g> </svg> 