<?xml version="1.0" encoding="UTF-8"?> <svg xmlns="http://www.w3.org/2000/svg" width="750" height="185" xml:space="preserve"> <defs> <linearGradient y2="1.01888" x2="0.16363" y1="0.24903" x1="0.66336" id="SVGID_1_"> <stop stop-color="#18191D" offset="0"></stop> <stop stop-color="#232956" offset="1"></stop> </linearGradient> <linearGradient y2="1.13668" x2="0.79162" y1="0.06433" x1="0.28975" id="SVGID_00000006666084803188696410000010434680347454564536_"> <stop stop-color="#EFEFEF" offset="0"></stop> <stop stop-color="#B7B8BE" offset="1"></stop> </linearGradient> <linearGradient y2="0.75365" x2="0.71336" y1="0.42441" x1="0.44307" id="SVGID_00000149352832952969194200000003535038180149643921_"> <stop stop-color="#E5E5E4" offset="0"></stop> <stop stop-color="#B7B8C2" offset="1"></stop> </linearGradient> <linearGradient y2="0.50897" x2="0.32497" y1="0.45654" x1="1.34304" id="SVGID_00000102505596903389354080000014248089987848179595_"> <stop stop-color="#EA5051" offset="0"></stop> <stop stop-color="#AA191B" offset="1"></stop> </linearGradient> <linearGradient y2="0.53467" x2="0.33228" y1="0.34707" x1="1.32227" id="SVGID_00000022561460858606474120000004265741055853883547_"> <stop stop-color="#EA5051" offset="0"></stop> <stop stop-color="#AA191B" offset="1"></stop> </linearGradient> <linearGradient y2="1.1157" x2="-0.16136" y1="0.15161" x1="0.71643" id="SVGID_00000031893909507499461170000007566342551641645726_"> <stop stop-color="#F3A61A" offset="0"></stop> <stop stop-color="#F4E241" offset="1"></stop> </linearGradient> <linearGradient y2="0.92941" x2="0.62475" y1="-0.08362" x1="0.33579" id="SVGID_00000156556543443167552500000003305038362602373566_"> <stop stop-color="#CED1EB" offset="0"></stop> <stop stop-color="#FFFFFF" offset="1"></stop> </linearGradient> <linearGradient y2="0.5952" x2="0.68169" y1="0.35636" x1="0.23927" id="SVGID_00000034786873256175593430000015819527893056335271_"> <stop stop-color="#B62020" offset="0"></stop> <stop stop-color="#E03131" offset="0.44"></stop> <stop stop-color="#C6201E" offset="1"></stop> </linearGradient> </defs> <g> <title>Layer 1</title> <g id="svg_47"> <circle id="svg_1" fill="url(#SVGID_1_)" r="92.2" cy="92.20001" cx="92.20001" class="st0"></circle> <path id="svg_2" fill="#FFFFFF" d="m128.30001,140.20001c0.1,0.8 0.2,1.6 0.4,2.5c0.4,2.9 2.6,5.1 5.5,5.5c0.9,0.2 1.7,0.3 2.6,0.4c-1,0.1 -1.9,0.2 -2.8,0.4c-3.3,0.8 -5,2.7 -5.5,6.5c-0.1,0.5 -0.1,1 -0.2,1.5c-0.1,0.1 0,0.4 -0.2,0.3c-0.1,-1 -0.2,-2 -0.4,-2.9c-0.4,-2.8 -2.6,-5 -5.4,-5.4c-0.9,-0.2 -1.8,-0.2 -2.9,-0.4c1.1,-0.1 2.3,-0.2 3.4,-0.5c2.9,-0.7 4.6,-2.6 5.1,-5.8c0.1,-0.8 0.2,-1.6 0.3,-2.4c0.1,0 0,0.3 0.1,0.3z" class="st1"></path> <path id="svg_3" fill="#FFFFFF" d="m120.20001,82.90001c0.1,0.4 0.1,0.8 0.2,1.1c0.2,1.3 1.2,2.4 2.5,2.5c0.4,0.1 0.8,0.1 1.2,0.2c-0.5,0.1 -0.9,0.1 -1.3,0.2c-1.4,0.3 -2.5,1.5 -2.5,3c0,0.2 0,0.5 -0.1,0.7c0,0 0,0.2 -0.1,0.1c0,-0.4 -0.1,-0.9 -0.2,-1.3c-0.2,-1.3 -1.2,-2.3 -2.5,-2.5c-0.4,-0.1 -0.8,-0.1 -1.3,-0.2c0.5,0 1,-0.1 1.5,-0.2c1.3,-0.3 2.2,-1.4 2.3,-2.6c0.1,-0.4 0.1,-0.7 0.1,-1.1c0.2,-0.1 0.1,0 0.2,0.1z" class="st1"></path> <path id="svg_4" fill="#FFFFFF" d="m40.60001,112.80001c-0.1,-1.2 -0.2,-2.3 -0.6,-3.5c-0.6,-2.3 -2.5,-4.1 -4.8,-4.5c-1.1,-0.3 -2.2,-0.4 -3.2,-0.5c-0.1,0 -0.1,-0.1 0,-0.1c0.3,-0.2 0.6,0 0.9,-0.1c0.7,-0.1 1.4,-0.2 2.1,-0.3c2.8,-0.4 5,-2.7 5.4,-5.5c0.2,-0.9 0.3,-1.8 0.3,-2.8l0.1,-0.1l0.1,0.1c0.2,0.3 0,0.7 0.1,1c0.1,0.9 0.2,1.8 0.5,2.7c0.8,2.9 2.9,4.3 5.8,4.7c0.4,0.1 0.9,0.1 1.3,0.2c0.3,0.2 0.7,-0.2 0.8,0.2c-1.2,0.1 -2.4,0.3 -3.6,0.6c-3,0.8 -4.3,3 -4.7,5.8c-0.1,0.7 -0.2,1.4 -0.3,2.1c-0.1,0.1 -0.2,0.1 -0.2,0z" class="st1"></path> <path id="svg_5" fill="#FFFFFF" d="m65.30001,23.90001c0,0.9 0.2,1.8 0.4,2.7c0.5,1.9 2.1,3.3 4.1,3.5c0.6,0.1 1.2,0.2 1.8,0.2c0.1,0.1 0.1,0.1 0,0.2c-0.9,0.1 -1.8,0.2 -2.7,0.5c-1.8,0.5 -3,2 -3.3,3.9c-0.1,0.6 -0.2,1.1 -0.3,1.7c-0.3,0 -0.1,-0.2 -0.2,-0.3c-0.1,-0.7 -0.2,-1.5 -0.4,-2.2c-0.5,-1.7 -1.9,-2.9 -3.6,-3.2c-0.7,-0.2 -1.4,-0.3 -2.1,-0.3c-0.1,-0.1 -0.1,-0.1 0,-0.2c0.8,-0.1 1.7,-0.2 2.5,-0.5c1.5,-0.4 2.7,-1.6 3.2,-3.1c0.3,-0.8 0.4,-1.6 0.4,-2.5c0.1,0 -0.1,-0.3 0.2,-0.4z" class="st1"></path> <path id="svg_6" fill="#FFFFFF" d="m120.90001,35.00001c0,0.9 0.2,1.8 0.4,2.7c0.5,1.9 2.1,3.3 4.1,3.5c0.6,0.1 1.2,0.2 1.8,0.2c0.1,0 0.1,0.1 0,0.2c-0.9,0.1 -1.8,0.2 -2.7,0.5c-1.8,0.5 -3,2 -3.3,3.8c-0.1,0.6 -0.2,1.1 -0.3,1.7c-0.3,0 -0.1,-0.2 -0.2,-0.3c-0.1,-0.7 -0.2,-1.5 -0.4,-2.2c-0.5,-1.7 -1.9,-2.9 -3.6,-3.2c-0.7,-0.2 -1.4,-0.3 -2.1,-0.3c-0.1,-0.1 -0.1,-0.1 0,-0.2c0.8,-0.1 1.7,-0.2 2.5,-0.5c1.5,-0.4 2.7,-1.6 3.2,-3.1c0.3,-0.8 0.4,-1.6 0.4,-2.5c0.1,0.1 -0.1,-0.2 0.2,-0.3z" class="st1"></path> <path id="svg_7" fill="url(#SVGID_00000006666084803188696410000010434680347454564536_)" d="m86.50001,184.20001c-0.1,0 -0.3,0 -0.4,0c-0.3,-0.1 -0.7,-0.1 -1,0l-0.4,-0.1c-0.2,-0.1 -0.5,-0.1 -0.7,0c-0.1,0 -0.2,-0.1 -0.3,-0.1c-0.2,0 -0.5,0 -0.7,0l-0.3,-0.1c-0.2,0 -0.4,0 -0.6,0c-0.1,0 -0.2,0 -0.2,-0.1c-0.2,-0.1 -0.4,-0.1 -0.6,0l-0.3,-0.1c-0.1,-0.1 -0.3,-0.1 -0.4,0l-0.2,-0.1c-0.2,0 -0.3,0 -0.5,0c-0.1,0 -0.1,-0.1 -0.2,-0.1c-0.1,-0.1 -0.3,-0.1 -0.4,0l-0.2,-0.1c-0.1,-0.1 -0.3,-0.1 -0.4,0l-0.2,-0.1c-0.1,-0.1 -0.3,-0.1 -0.4,0c-1.4,-0.3 -2.8,-0.5 -4.2,-0.8c-2.2,-0.4 -4.3,-1 -6.4,-1.5c-4,-1.1 -8,-2.5 -11.8,-4.2c-7.6,-3.3 -14.8,-7.7 -21.2,-12.9c-3,-2.4 -5.9,-5.1 -8.6,-7.9c-2.2,-2.3 -4.3,-4.7 -6.2,-7.2c-2.2,-2.9 -4.3,-5.9 -6.2,-9c-1.8,-2.9 -3.4,-5.9 -4.8,-9c-1,-2.1 -1.8,-4.1 -2.6,-6.3c-0.1,-0.2 -0.1,-0.4 -0.1,-0.6c2.8,-0.1 5.6,-0.1 8.4,0.1c4.1,0.2 8.2,0.7 12.2,1.5c31.5,6.2 57.5,28.2 68.7,58.3c0,0.1 0,0.1 0,0.2c0.1,0.3 -0.1,0.2 -0.2,0.2l-0.9,0c-0.4,0 -0.7,0 -1.1,0l-2,0c-0.9,-0.1 -1.8,-0.1 -2.7,0l-0.3,0c-0.1,-0.1 -0.2,-0.1 -0.4,-0.1c-0.4,0.1 -0.8,0.1 -1.2,0.1z"></path> <path id="svg_8" fill="#C6C8CA" d="m88.60001,184.40001c0.3,-0.1 0.7,-0.2 1.1,-0.1c0.5,-0.1 1.1,0 1.6,0.1l-2.7,0z" class="st3"></path> <path id="svg_9" fill="#9DA4A8" d="m93.90001,184.30001l0.9,0c0.1,0 0.3,0 0.3,-0.2c0.1,0.1 0.2,0.2 0.4,0.2c0,0 0,0 0,0.1l0,0l-1.6,-0.1c-0.1,0.1 -0.1,0 0,0z" class="st4"></path> <path id="svg_10" fill="#B8BBBD" d="m93.90001,184.30001c0,0 0,0.1 0,0l-1,0.1c0.3,-0.1 0.7,-0.1 1,-0.1z" class="st5"></path> <path id="svg_11" fill="#CCCFD1" d="m95.50001,184.40001c0,0 0,-0.1 0,0l0.6,-0.1c0,0 0,0.1 0,0.1l-0.6,0z" class="st6"></path> <path id="svg_12" fill="url(#SVGID_00000149352832952969194200000003535038180149643921_)" d="m129.10001,7.80001c0.2,0.1 0.4,-0.1 0.6,-0.2c1.7,-1.1 3.5,-2.2 5.4,-3.1c0.2,0.1 0.3,0.3 0.4,0.5c1.1,1.7 2.3,3.3 3.7,4.8c3,3.2 6.5,5.8 10.5,7.7c3,1.4 6.1,2.4 9.4,2.9c0.2,0 0.5,0.1 0.7,0.2c-0.1,1.7 -0.2,3.4 -0.5,5.1c-0.1,0.9 -0.3,1.8 -0.5,2.6c0,0.1 0,0.2 0,0.4c-0.2,0.2 -0.2,0.5 -0.2,0.7c-1.5,6.8 -4,13.4 -7.5,19.5c-3.1,5.3 -6.5,10.3 -10.2,15.2c-3.9,5.2 -8,10.2 -12.2,15l-0.3,0.4c0,0.2 -0.1,0.4 -0.3,0.5c-0.9,1.1 -1.9,2.2 -2.9,3.2c-2.4,2.6 -4.7,5.1 -7.2,7.5c-1,1 -2,2 -3.1,2.9c-0.1,0.2 -0.3,0.2 -0.5,0.2l-1.7,1.4c-0.3,0.2 -0.4,0 -0.6,-0.1c-1.3,-0.8 -2.6,-1.7 -3.9,-2.5c-0.6,-0.4 -1.2,-0.7 -1.7,-1.1s-1.4,-0.9 -2,-1.3c-8.4,-5.6 4,2.6 -9.4,-6.1c-0.6,-0.4 -1.2,-0.8 -1.8,-1.2c-1.3,-0.8 -2.6,-1.7 -3.9,-2.5c-1,-0.6 -1.9,-1.2 -2.9,-1.9c-0.2,-0.1 -0.4,-0.2 -0.4,-0.5c0.2,-0.7 0.3,-1.4 0.5,-2.1c-0.1,-0.3 0,-0.6 0.1,-0.9c0.4,-1.4 1,-2.8 1.5,-4.2c1.6,-4.3 3.4,-8.5 5.2,-12.7c0.1,-0.3 0.2,-0.7 0.6,-0.9c1.2,-2.6 2.5,-5.2 3.8,-7.8c4,-8 8.5,-15.8 13.5,-23.3c4.7,-7 10.7,-13.1 17.7,-17.9c0,-0.1 0.2,-0.1 0.1,-0.4z"></path> <path id="svg_13" fill="url(#SVGID_00000102505596903389354080000014248089987848179595_)" d="m114.40001,93.80001c1.5,-1.4 2.9,-2.7 4.4,-4.1c3.2,-3.2 6.2,-6.5 9.2,-9.8c0.1,-0.1 0.3,-0.3 0.4,-0.4c1.3,1.2 2.2,2.7 2.6,4.4c0.6,2.5 0.9,5.1 0.8,7.6c-0.1,2.3 -0.3,4.6 -0.7,6.9c-0.5,2.3 -1.3,4.4 -2.5,6.4c-3.7,6.8 -8.1,13.3 -13.2,19.2c-0.7,0.8 -1.5,1.6 -2.3,2.3c-0.8,0.9 -2.2,0.9 -3,0.1c-0.1,-0.1 -0.2,-0.2 -0.3,-0.3c-1,-1.1 -1.6,-2.5 -2,-3.9c-0.2,-0.7 -0.3,-1.3 -0.4,-2c-0.1,-0.6 0,-1.3 0.2,-1.9c0.8,-2.2 1.8,-4.2 3,-6.2c1.7,-3 3.5,-5.9 5.4,-8.8c0.5,-0.7 0.6,-1.5 0.4,-2.3c-0.3,-1.9 -1,-3.6 -1.5,-5.4c-0.1,-0.6 -0.3,-1.2 -0.5,-1.8z"></path> <path id="svg_14" fill="url(#SVGID_00000022561460858606474120000004265741055853883547_)" d="m94.00001,57.10001c-1,2.2 -1.9,4.4 -2.9,6.6c-1.7,3.9 -3.2,7.9 -4.5,12c0,0 0,0.1 -0.1,0.1c-2.5,0.4 -5.1,0.6 -7.6,1.2c-0.7,0.1 -1.3,0.6 -1.6,1.2c-2.5,4 -5.3,7.9 -8.2,11.6c-0.5,0.6 -1,1.2 -1.6,1.8c-0.7,0.8 -1.6,1.4 -2.7,1.6c-1.7,0.4 -3.6,0.5 -5.3,0.2c-0.4,-0.1 -0.7,-0.2 -1,-0.4c-0.9,-0.4 -1.4,-1.4 -1.1,-2.4c0.3,-1.1 0.6,-2.1 1.1,-3.1c3.4,-7.3 7.6,-14.2 12.5,-20.5c2.5,-3.1 5.6,-5.6 9.2,-7.3c2.5,-1.4 5.3,-2.4 8.1,-3c2,-0.5 4,-0.3 5.7,0.4z"></path> <path id="svg_15" fill="#61624A" d="m47.90001,105.20001c0.2,-0.1 0.4,-0.1 0.7,0l-0.7,0z" class="st10"></path> <path id="svg_16" fill="#62644B" d="m35.70001,105.20001c-0.2,0 -0.4,0 -0.7,0c0.3,0 0.5,0 0.7,0z" class="st12"></path> <path id="svg_17" fill="#5D5F4A" d="m41.80001,111.90001c-0.1,-0.1 0,-0.3 -0.1,-0.5c0.2,0.2 0.1,0.4 0.1,0.5z" class="st13"></path> <path id="svg_18" fill="#827A50" d="m41.80001,99.30001l0,0l0,-0.7c0.1,0.3 0.1,0.5 0,0.7z" class="st14"></path> <path id="svg_19" fill="#C9AD5C" d="m35.70001,105.20001l0,0l0.4,-0.1l0,0.1l-0.4,0z" class="st15"></path> <path id="svg_20" fill="#E03131" d="m159.80001,20.60001c-1.1,-0.1 -2.3,-0.3 -3.4,-0.6c-8.8,-2.1 -16.4,-7.5 -21.2,-15.1c-0.1,-0.1 -0.2,-0.2 -0.2,-0.4c2.6,-1.3 5.4,-2.4 8.3,-3.2c2.7,-0.8 5.5,-1.2 8.3,-1.1c0.7,0 1.4,0.1 2.1,0.3c0.9,0.2 1.6,0.7 2.1,1.4c1,1.4 1.7,3 2.2,4.7c1.2,4 1.8,8.1 1.7,12.3c0.2,0.5 0.1,1.1 0.1,1.7z" class="st16"></path> <path id="svg_21" fill="#C6C8CA" d="m86.70001,184.20001c0.4,-0.1 0.8,-0.1 1.2,0l-1.2,0z" class="st3"></path> <path id="svg_22" fill="#BBBFC2" d="m85.30001,184.20001c0.3,-0.1 0.7,-0.1 1,0l-1,0z" class="st17"></path> <path id="svg_23" fill="#CACDCE" d="m83.20001,184.00001c0.2,-0.1 0.5,-0.1 0.7,0l-0.7,0z" class="st18"></path> <path id="svg_24" fill="#C0C4C6" d="m84.20001,184.10001c0.2,-0.1 0.5,-0.1 0.7,0l-0.7,0z" class="st19"></path> <path id="svg_25" fill="#BCC0C1" d="m81.50001,183.80001c0.2,-0.1 0.4,-0.1 0.6,0l-0.6,0z" class="st20"></path> <path id="svg_26" fill="#BEC1C4" d="m82.30001,183.90001c0.2,-0.1 0.4,-0.1 0.6,0l-0.6,0z" class="st21"></path> <path id="svg_27" fill="#BEC1C4" d="m80.00001,183.60001c0.2,-0.1 0.4,-0.1 0.5,0l-0.5,0z" class="st21"></path> <path id="svg_28" fill="#B8BCBF" d="m78.10001,183.40001c0.1,-0.1 0.3,-0.1 0.4,0c0,0 0,0 0,0l-0.4,0z" class="st22"></path> <path id="svg_29" fill="#C5C7CA" d="m79.30001,183.60001c0.1,-0.1 0.3,-0.1 0.4,0c0,0 0,0 0,0l-0.4,0z" class="st23"></path> <path id="svg_30" fill="#C8CACC" d="m80.70001,183.70001c0.1,-0.1 0.3,-0.1 0.4,0c0,0 0,0 0,0l-0.4,0z" class="st24"></path> <path id="svg_31" fill="#C2C5C7" d="m78.70001,183.50001c0.1,-0.1 0.3,-0.1 0.4,0l-0.4,0z" class="st25"></path> <path id="svg_32" fill="#CCCCCB" d="m51.50001,154.50001c-0.2,0.1 -0.4,0.1 -0.7,0.1c0.3,-0.1 0.5,-0.1 0.7,-0.1z" class="st26"></path> <path id="svg_33" fill="#18191D" d="m145.90001,37.10001c0,8 -6.5,14.4 -14.4,14.4c-8,0 -14.4,-6.5 -14.4,-14.4c0,-8 6.5,-14.4 14.4,-14.4c0,0 0.1,0 0.1,0c7.9,0.1 14.3,6.5 14.3,14.4z" class="st27"></path> <path id="svg_34" fill="url(#SVGID_00000031893909507499461170000007566342551641645726_)" d="m89.50001,123.40001c5.8,-5.9 11,-12.4 15.6,-19.3c0,-0.2 -0.1,-0.4 -0.3,-0.5l0,0l-0.9,-0.6l-0.6,-0.4c-0.1,-0.1 -0.3,-0.2 -0.5,-0.2l-0.1,0c-4.3,-2.9 -8.6,-5.7 -13,-8.5c-1.7,-1.1 -3.3,-2.1 -5,-3.2l0,-0.1l0,0c0,0 0,-0.1 -0.1,-0.1c-0.6,-0.5 -1.2,-0.9 -1.9,-1.2l-0.1,-0.1c-0.1,-0.1 -0.2,-0.1 -0.3,0c-3.6,5.8 -6.8,11.8 -9.5,18.1c-2.6,5.7 -4.7,11.7 -6.3,17.8c-0.7,2.5 -1,5 -1.1,7.5c-0.1,1.2 0.1,2.4 0.6,3.6c0.4,1.2 1.6,2.1 2.9,2c0.7,0 1.4,-0.1 2,-0.3c2.3,-0.8 4.4,-2 6.2,-3.4c4.5,-3.3 8.6,-7 12.4,-11.1z"></path> <path id="svg_35" fill="url(#SVGID_00000156556543443167552500000003305038362602373566_)" d="m131.20001,28.50001c4.8,-0.2 8.8,3.6 8.9,8.3s-3.6,8.8 -8.3,8.9c-4.6,0.2 -8.5,-3.3 -8.9,-7.9c-0.4,-4.7 3,-8.9 7.8,-9.3c0.2,0 0.3,0 0.5,0z"></path> <path id="svg_36" fill="url(#SVGID_00000034786873256175593430000015819527893056335271_)" d="m95.80001,84.20001c0.2,-0.1 0.3,-0.3 0.5,-0.5c2.4,-3.3 5.1,-6.5 8,-9.3c1.1,-1.1 2.2,-2 3.5,-2.8c0.4,-0.3 0.9,-0.4 1.4,-0.5c0.7,-0.2 1.4,0.2 1.5,0.9c0,0.1 0,0.1 0,0.2c0.1,0.8 0.1,1.5 -0.1,2.3c-0.5,2.6 -1.4,5.1 -2.6,7.4c-1.1,2.5 -2.4,4.9 -3.8,7.3c-0.1,0.1 -0.2,0.3 -0.2,0.5c0,0.2 -0.1,0.4 -0.2,0.6c-1.7,2.9 -3.5,5.7 -5.4,8.4c-0.2,0.2 -0.3,0.5 -0.5,0.8c-0.8,1 -1.5,2 -2.3,3c-2,2.6 -4.2,5.1 -6.6,7.4c-1,1 -2.2,1.9 -3.5,2.5c-0.3,0.2 -0.7,0.3 -1,0.3c-0.8,0.2 -1.6,-0.2 -1.8,-1c0,-0.1 0,-0.2 0,-0.2c-0.1,-0.7 -0.1,-1.4 0,-2.1c0.3,-1.6 0.7,-3.1 1.3,-4.6c1.4,-3.6 3.1,-7 5,-10.3c0.1,-0.2 0.2,-0.4 0.4,-0.5c0.6,-1.1 1.3,-2.2 2,-3.3c1.2,-2 2.5,-4 3.9,-5.9c0.2,-0.3 0.3,-0.5 0.5,-0.6z"></path> <path id="svg_37" fill="#E03131" d="m82.20001,89.20001l2.4,1.5l0.1,0.1c0.1,0.1 0.1,0.2 0.2,0.2c0.3,0.2 0.6,0.4 0.9,0.6l0.9,0.6c0.1,0.1 0.3,0.2 0.5,0.1c0,0.2 0.1,0.3 0.2,0.4c0.3,0.2 0.7,0.5 1,0.7s0.4,0.3 0.7,0.4c0.1,0.1 0.3,0.1 0.4,0c0.2,-0.3 0.3,-0.6 0.5,-0.9c1.6,-2.6 3.2,-5.1 4.9,-7.6c0.1,-0.1 0.1,-0.2 0.2,-0.3c0.2,-0.2 0.4,-0.5 0.5,-0.9l-0.5,-0.4c-0.6,-0.4 -1.3,-0.9 -2,-1.2l0,0l0,0l-0.3,-0.2l-2.1,-1.3l-3.3,-2.2l-0.5,-0.3c-0.4,-0.2 -0.7,-0.5 -1,-0.7l-0.1,0c0,0 -0.1,0 -0.1,0c-1.4,-0.7 -3.1,-0.2 -3.9,1.2c-0.6,1 -1.3,2 -1.9,3l-0.9,1.4c-1,1.3 -0.7,3.1 0.6,4.1c0.1,0.1 0.2,0.2 0.3,0.2l0.7,0.4c0.6,0.4 1.1,0.8 1.6,1.1z" class="st16"></path> <path id="svg_38" fill="#E03131" d="m98.20001,98.80001c-0.2,0.1 -0.3,0.3 -0.2,0.5c0,0.2 0.1,0.3 0.2,0.4l0.8,0.5l0.8,0.5c0.1,0.1 0.2,0.1 0.4,0.1c0.1,0.2 0.2,0.3 0.3,0.4l0.1,0c0.2,0.1 0.4,0.3 0.6,0.4s0.6,0.4 0.8,0.5c0.2,0.2 0.5,0.3 0.8,0.3l0.7,0.4c0.6,0.3 1.1,0.7 1.6,1.1c0.3,0.1 0.6,0.3 0.8,0.5l0.3,0.2c1.3,0.9 3.1,0.6 4,-0.6c0,-0.1 0.1,-0.1 0.1,-0.2c1.1,-1.6 2.1,-3.2 3.1,-4.8c0.7,-1.1 0.6,-2.5 -0.3,-3.5l-0.4,-0.4l-0.1,-0.1l-0.2,-0.1l-0.3,-0.2l-2.8,-1.8l-2.8,-1.8l0,0c-0.8,-0.5 -1.6,-1.1 -2.4,-1.6l0,0c0,0 -0.1,0.1 -0.1,0.1c-1.8,3 -3.7,5.9 -5.7,8.8c0,0.3 -0.1,0.4 -0.1,0.4z" class="st16"></path> <path id="svg_39" fill="#18191D" d="m742.90001,121.70001c-7.7,0 -11.8,-4.2 -11.8,-11.9l0,-28.7l18.7,0l0,-11.3l-19,0l0,-14.9l-2.2,0l-22.2,23.7l0,2.7l11.3,0l0,29.7c0,14 8.7,22.7 22.5,22.7l9.8,0l0,-11.8l-7.2,0l0,-0.2l0.1,0z" class="st27"></path> <path id="svg_40" fill="#18191D" d="m672.00001,135.10001c19.4,0 33.9,-14.2 33.9,-33.4c0,-19 -14.5,-33.4 -33.9,-33.4c-19.5,0 -34,14.2 -34,33.4s14.5,33.4 34,33.4zm0,-12.4c-12.2,0 -20.7,-8.7 -20.7,-21c0,-12.2 8.7,-20.9 20.7,-20.9s20.7,8.7 20.7,20.9s-8.7,21 -20.7,21z" class="st27"></path> <path id="svg_41" fill="#18191D" d="m598.70001,68.30001c-8.6,-0.1 -16.9,3.3 -23,9.3l-2.5,-7.8l-8.7,0l0,86.4l13,0l0,-28.9c5.8,5 13.3,7.8 21,7.7c19,0 33,-14.4 33,-33.4s-13.9,-33.3 -32.8,-33.3zm-1.1,54.4c-12,0 -20.9,-9 -20.9,-21c0,-11.9 8.8,-20.9 20.9,-20.9s20.7,9 20.7,20.9c0,12 -8.7,21 -20.7,21l0,0z" class="st27"></path> <path id="svg_42" fill="#18191D" d="m397.50001,53.20001c0,3.7 3,6.7 6.7,6.8c3.7,0 6.7,-3.1 6.7,-6.8c0,0 0,0 0,-0.1c0,-3.7 -3,-6.8 -6.7,-6.9c-3.7,0.4 -6.6,3.4 -6.7,7zm0.1,80.3l13,0l0,-63.7l-13,0l0,63.7z" class="st27"></path> <path id="svg_43" fill="#18191D" d="m459.40001,68.50001c-9.4,0 -17.2,3.8 -21.9,10.4l-2.7,-9l-9,0l0,63.6l13,0l0,-34c0,-11.2 7,-19.2 17,-19.2c9.5,0 14.7,6.2 14.7,17.7l0,35.5l13,0l0,-38.3c0.3,-15.7 -9.1,-26.7 -24.1,-26.7z" class="st27"></path> <path id="svg_44" fill="#18191D" d="m353.60001,135.10001c19.4,0 33.9,-14.2 33.9,-33.4c0,-19 -14.5,-33.4 -33.9,-33.4c-19.5,0 -34,14.2 -34,33.4s14.5,33.4 34,33.4zm0,-12.4c-12.2,0 -20.7,-8.7 -20.7,-21c0,-12.2 8.7,-20.9 20.7,-20.9s20.7,8.7 20.7,20.9s-8.7,21 -20.7,21z" class="st27"></path> <path id="svg_45" fill="#18191D" d="m273.80001,135.10001c19.9,0 35.4,-12.5 39.9,-31.9l-13.9,0c-3.8,11.7 -13.4,18.9 -26,18.9c-16.5,0 -28.7,-12.4 -28.7,-29.5s12.2,-29.7 28.7,-29.7c12.2,0 21.9,6.7 25.9,17.7l13.7,0c-4.3,-18.7 -20,-30.7 -39.4,-30.7c-24.4,0 -42.4,18 -42.4,42.7c-0.2,24.4 17.9,42.5 42.2,42.5z" class="st27"></path> <path id="svg_46" fill="#18191D" d="m523.80001,134.70001c16.7,0 30,-8.7 30,-25.2c0,-17.9 -15,-21.4 -27.9,-24.7c-9.8,-2.3 -18.2,-4.3 -18.2,-12c0,-6.7 6.7,-10.5 15,-10.5c8.7,0 15.4,4.5 15.4,12.7l13.3,0c0,-15.5 -10.7,-25.4 -28.5,-25.4c-17.5,0 -28.9,8.9 -28.9,23.7c0,17 14.5,20.5 27,23.5c9.8,2.3 18.7,4.3 18.7,12.7c0,7.5 -7.3,12.2 -16.2,12.2c-9.7,0 -17.2,-5.2 -17.2,-14.4l-13.6,0c0.1,17.1 12.7,27.4 31.1,27.4z" class="st27"></path> </g> </g> </svg> 