<svg width="1440" height="528" viewBox="0 0 1440 528" fill="none" xmlns="http://www.w3.org/2000/svg">
<rect width="1440" height="528" fill="#F0F0F0"/>
<path d="M1423.18 506.877L1422.98 498.671C1422.91 495.969 1422.82 493.297 1422.79 490.639L1423.18 491.036C1416.78 491.109 1410.39 491.265 1403.99 491.273L1384.79 491.364L1385.51 490.639L1385.44 506.877L1384.79 506.228C1387.95 506.254 1391.11 506.24 1394.28 506.309L1403.82 506.47L1423.18 506.877V506.877ZM1423.18 506.877L1404.16 507.28L1394.5 507.442C1391.27 507.511 1388.03 507.496 1384.79 507.522L1384.15 507.528L1384.14 506.877L1384.07 490.639L1384.06 489.91L1384.79 489.915L1403.99 490.006C1410.39 490.013 1416.78 490.168 1423.18 490.244L1423.58 490.248L1423.58 490.639C1423.55 493.396 1423.46 496.133 1423.39 498.842L1423.18 506.877V506.877Z" fill="#CFCFCF"/>
<path d="M1401.77 527.348L1401.56 519.146C1401.5 516.441 1401.4 513.77 1401.37 511.113L1401.77 511.508C1395.37 511.583 1388.97 511.738 1382.57 511.746L1363.37 511.837L1364.1 511.113L1364.02 527.348L1363.37 526.702C1366.54 526.727 1369.69 526.712 1372.86 526.781L1382.4 526.944L1401.77 527.348V527.348ZM1401.77 527.348L1382.74 527.753L1373.08 527.915C1369.85 527.982 1366.61 527.969 1363.37 527.995L1362.73 528L1362.73 527.348L1362.65 511.113L1362.65 510.385L1363.37 510.388L1382.57 510.479C1388.97 510.486 1395.37 510.641 1401.77 510.715L1402.17 510.721L1402.16 511.113C1402.14 513.867 1402.04 516.606 1401.97 519.315L1401.77 527.348V527.348Z" fill="#CFCFCF"/>
<path d="M1444.6 527.348L1444.39 519.146C1444.33 516.441 1444.23 513.77 1444.21 511.113L1444.6 511.508C1438.2 511.583 1431.8 511.738 1425.4 511.746L1406.21 511.837L1406.93 511.113L1406.85 527.348L1406.21 526.702C1409.37 526.727 1412.53 526.712 1415.7 526.781L1425.24 526.944L1444.6 527.348V527.348ZM1444.6 527.348L1425.57 527.753L1415.91 527.915C1412.69 527.982 1409.44 527.969 1406.21 527.995L1405.56 528L1405.56 527.348L1405.48 511.113L1405.48 510.385L1406.21 510.388L1425.4 510.479C1431.8 510.486 1438.2 510.641 1444.6 510.715L1445 510.721L1445 511.113C1444.97 513.867 1444.87 516.606 1444.81 519.315L1444.6 527.348V527.348Z" fill="#CFCFCF"/>
<path d="M875.747 313.668L875.541 305.464C875.474 302.761 875.379 300.088 875.351 297.432L875.747 297.828C869.347 297.902 862.949 298.058 856.549 298.066L837.354 298.155L838.078 297.432L838 313.668L837.354 313.021C840.517 313.047 843.671 313.032 846.844 313.1L856.383 313.263L875.747 313.668V313.668ZM875.747 313.668L856.718 314.073L847.06 314.234C843.832 314.303 840.589 314.289 837.354 314.315L836.711 314.32L836.708 313.668L836.629 297.432L836.626 296.703L837.354 296.708L856.549 296.797C862.949 296.806 869.347 296.961 875.747 297.037L876.146 297.04L876.143 297.432C876.115 300.187 876.018 302.926 875.953 305.635L875.747 313.668V313.668Z" fill="#CFCFCF"/>
<path d="M459.538 16.9649L459.332 8.7611C459.265 6.05791 459.17 3.38516 459.142 0.728445L459.538 1.12454C453.138 1.19858 446.74 1.35529 440.34 1.3627L421.145 1.45237L421.869 0.728445L421.791 16.9649L421.145 16.3174C424.308 16.3438 427.462 16.3294 430.635 16.3972L440.174 16.5601L459.538 16.9649V16.9649ZM459.538 16.9649L440.509 17.3696L430.851 17.5308C427.623 17.6004 424.38 17.5859 421.145 17.6119L420.502 17.6164L420.499 16.9649L420.42 0.728445L420.417 0L421.145 0.00451889L440.34 0.0941937C446.74 0.103243 453.138 0.258303 459.538 0.333574L459.937 0.336446L459.934 0.728445C459.906 3.48387 459.809 6.22325 459.744 8.9322L459.538 16.9649V16.9649Z" fill="#CFCFCF"/>
<path d="M55.538 133.965L55.3321 125.761C55.2655 123.058 55.1697 120.385 55.1422 117.728L55.538 118.125C49.1382 118.199 42.7398 118.355 36.34 118.363L17.1454 118.452L17.8692 117.728L17.7906 133.965L17.1454 133.317C20.3076 133.344 23.4625 133.329 26.6346 133.397L36.1736 133.56L55.538 133.965V133.965ZM55.538 133.965L36.5085 134.37L26.8508 134.531C23.6232 134.6 20.3804 134.586 17.1454 134.612L16.5017 134.616L16.4989 133.965L16.4204 117.728L16.4175 117L17.1454 117.005L36.34 117.094C42.7398 117.103 49.1382 117.258 55.538 117.334L55.9367 117.336L55.9338 117.728C55.9062 120.484 55.8088 123.223 55.7439 125.932L55.538 133.965V133.965Z" fill="#CFCFCF"/>
<path d="M854.329 334.141L854.123 325.937C854.058 323.233 853.961 320.561 853.933 317.904L854.329 318.3C847.93 318.374 841.531 318.529 835.133 318.538L815.937 318.628L816.66 317.904L816.582 334.141L815.937 333.493C819.099 333.518 822.254 333.505 825.426 333.573L834.966 333.736L854.329 334.141ZM854.329 334.141L835.301 334.545L825.642 334.707C822.416 334.776 819.171 334.762 815.937 334.788L815.293 334.792L815.29 334.141L815.212 317.904L815.209 317.176L815.937 317.18L835.133 317.27C841.531 317.277 847.93 317.434 854.329 317.508L854.728 317.512L854.725 317.904C854.697 320.66 854.6 323.399 854.535 326.108L854.329 334.141V334.141Z" fill="#CFCFCF"/>
<path d="M438.12 37.4375L437.914 29.2338C437.849 26.5302 437.752 23.8578 437.724 21.2011L438.12 21.5972C431.721 21.6712 425.322 21.8263 418.924 21.8354L399.728 21.925L400.451 21.2011L400.373 37.4375L399.728 36.7901C402.89 36.8148 406.045 36.802 409.217 36.8699L418.757 37.0328L438.12 37.4375ZM438.12 37.4375L419.092 37.8423L409.433 38.0035C406.207 38.073 402.962 38.0586 399.728 38.0845L399.084 38.0891L399.081 37.4375L399.003 21.2011L399 20.4727L399.728 20.4772L418.924 20.5668C425.322 20.5743 431.721 20.731 438.12 20.805L438.519 20.8091L438.516 21.2011C438.488 23.9565 438.391 26.6959 438.326 29.4049L438.12 37.4375V37.4375Z" fill="#CFCFCF"/>
<path d="M34.1201 154.438L33.9142 146.234C33.8492 143.53 33.7518 140.858 33.7243 138.201L34.1201 138.597C27.7207 138.671 21.3223 138.826 14.9242 138.835L-4.27212 138.925L-3.54875 138.201L-3.62683 154.438L-4.27212 153.79C-1.10986 153.815 2.0446 153.802 5.21713 153.87L14.7573 154.033L34.1201 154.438ZM34.1201 154.438L15.0923 154.842L5.43331 155.003C2.20694 155.073 -1.03752 155.059 -4.27212 155.085L-4.91573 155.089L-4.91902 154.438L-4.99711 138.201L-5 137.473L-4.27212 137.477L14.9242 137.567C21.3223 137.574 27.7207 137.731 34.1201 137.805L34.5191 137.809L34.5158 138.201C34.4883 140.957 34.3913 143.696 34.326 146.405L34.1201 154.438V154.438Z" fill="#CFCFCF"/>
<path d="M897.162 334.141L896.957 325.937C896.891 323.233 896.794 320.561 896.768 317.904L897.162 318.3C890.764 318.374 884.365 318.529 877.966 318.538L858.77 318.628L859.495 317.904L859.416 334.141L858.77 333.493C861.934 333.52 865.088 333.505 868.261 333.573L877.799 333.736L897.162 334.141V334.141ZM897.162 334.141L878.133 334.545L868.477 334.707C865.249 334.776 862.006 334.762 858.77 334.788L858.127 334.792L858.123 334.141L858.045 317.904L858.042 317.176L858.77 317.18L877.966 317.27C884.365 317.277 890.764 317.434 897.162 317.508L897.562 317.512L897.558 317.904C897.532 320.66 897.433 323.399 897.37 326.108L897.162 334.141V334.141Z" fill="#CFCFCF"/>
<path d="M480.953 37.4375L480.748 29.2338C480.682 26.5302 480.585 23.8578 480.559 21.2011L480.953 21.5972C474.555 21.6712 468.156 21.8263 461.757 21.8354L442.561 21.925L443.286 21.2011L443.207 37.4375L442.561 36.7901C445.725 36.8164 448.879 36.802 452.052 36.8699L461.59 37.0328L480.953 37.4375V37.4375ZM480.953 37.4375L461.924 37.8423L452.268 38.0035C449.04 38.073 445.797 38.0586 442.561 38.0845L441.918 38.0891L441.914 37.4375L441.836 21.2011L441.833 20.4727L442.561 20.4772L461.757 20.5668C468.156 20.5743 474.555 20.731 480.953 20.805L481.353 20.8091L481.349 21.2011C481.323 23.9565 481.224 26.6959 481.161 29.4049L480.953 37.4375V37.4375Z" fill="#CFCFCF"/>
<path d="M76.9534 154.438L76.7475 146.234C76.6822 143.53 76.5848 140.858 76.5589 138.201L76.9534 138.597C70.555 138.671 64.1565 138.826 57.7572 138.835L38.5609 138.925L39.2859 138.201L39.2074 154.438L38.5609 153.79C41.7248 153.816 44.8793 153.802 48.0518 153.87L57.5903 154.033L76.9534 154.438V154.438ZM76.9534 154.438L57.9236 154.842L48.2676 155.003C45.0404 155.073 41.7971 155.059 38.5609 155.085L37.9185 155.089L37.9144 154.438L37.8359 138.201L37.833 137.473L38.5609 137.477L57.7572 137.567C64.1565 137.574 70.555 137.731 76.9534 137.805L77.3534 137.809L77.3492 138.201C77.3229 140.957 77.2243 143.696 77.1606 146.405L76.9534 154.438V154.438Z" fill="#CFCFCF"/>
<path d="M562.704 421.097L562.498 412.894C562.434 410.19 562.335 407.518 562.308 404.861L562.704 405.257C556.305 405.331 549.906 405.488 543.508 405.495L524.311 405.587L525.036 404.861L524.957 421.096L524.311 420.45C527.474 420.477 530.629 420.462 533.801 420.53L543.34 420.693L562.704 421.097V421.097ZM562.704 421.097L543.675 421.501L534.018 421.665C530.79 421.732 527.547 421.718 524.311 421.743L523.668 421.749L523.665 421.096L523.587 404.861L523.583 404.133L524.311 404.136L543.508 404.227C549.906 404.234 556.305 404.391 562.704 404.465L563.103 404.469L563.1 404.861C563.072 407.617 562.976 410.356 562.91 413.065L562.704 421.097Z" fill="#CFCFCF"/>
<path d="M1199.17 313.656L1198.96 305.453C1198.89 302.749 1198.8 300.078 1198.77 297.42L1199.17 297.816C1192.77 297.89 1186.37 298.047 1179.97 298.054L1160.77 298.145L1161.5 297.42L1161.42 313.656L1160.77 313.009C1163.94 313.035 1167.09 313.02 1170.26 313.089L1179.8 313.251L1199.17 313.656V313.656ZM1199.17 313.656L1180.14 314.061L1170.48 314.223C1167.25 314.292 1164.01 314.277 1160.77 314.303L1160.13 314.308L1160.13 313.656L1160.05 297.42L1160.04 296.691L1160.77 296.696L1179.97 296.787C1186.37 296.794 1192.77 296.95 1199.17 297.024L1199.57 297.03L1199.56 297.42C1199.53 300.175 1199.44 302.914 1199.37 305.624L1199.17 313.656V313.656Z" fill="#CFCFCF"/>
<path d="M1420.96 155.964L1420.76 147.76C1420.69 145.058 1420.59 142.386 1420.57 139.728L1420.96 140.123C1414.56 140.199 1408.17 140.354 1401.77 140.363L1382.57 140.453L1383.3 139.728L1383.22 155.964L1382.57 155.318C1385.74 155.343 1388.89 155.329 1392.06 155.398L1401.6 155.558L1420.96 155.964V155.964ZM1420.96 155.964L1401.93 156.368L1392.28 156.531C1389.05 156.599 1385.81 156.585 1382.57 156.611L1381.93 156.616L1381.93 155.964L1381.85 139.728L1381.84 139L1382.57 139.003L1401.77 139.095C1408.17 139.102 1414.56 139.258 1420.96 139.332L1421.36 139.337L1421.36 139.728C1421.33 142.483 1421.24 145.223 1421.17 147.931L1420.96 155.964V155.964Z" fill="#CFCFCF"/>
<path d="M136.12 391.964L135.915 383.76C135.849 381.058 135.751 378.386 135.724 375.728L136.12 376.123C129.721 376.199 123.322 376.354 116.924 376.363L97.7279 376.453L98.4513 375.728L98.3732 391.964L97.7279 391.318C100.892 391.343 104.045 391.329 107.217 391.398L116.757 391.558L136.12 391.964V391.964ZM136.12 391.964L117.091 392.368L107.433 392.531C104.207 392.599 100.963 392.585 97.7279 392.611L97.0843 392.616L97.0814 391.964L97.0029 375.728L97 375L97.7279 375.003L116.924 375.095C123.322 375.102 129.721 375.258 136.12 375.332L136.52 375.337L136.516 375.728C136.489 378.483 136.391 381.223 136.326 383.931L136.12 391.964V391.964Z" fill="#CFCFCF"/>
<path d="M1442.38 176.436L1442.17 168.233C1442.11 165.531 1442.01 162.858 1441.99 160.201L1442.38 160.596C1435.98 160.671 1429.58 160.827 1423.18 160.834L1403.99 160.925L1404.71 160.201L1404.63 176.436L1403.99 175.789C1407.15 175.815 1410.31 175.8 1413.48 175.87L1423.02 176.031L1442.38 176.436V176.436ZM1442.38 176.436L1423.35 176.841L1413.69 177.003C1410.47 177.072 1407.22 177.059 1403.99 177.083L1403.34 177.088L1403.34 176.436L1403.26 160.201L1403.26 159.473L1403.99 159.476L1423.18 159.567C1429.58 159.574 1435.98 159.73 1442.38 159.804L1442.78 159.81L1442.78 160.201C1442.75 162.955 1442.65 165.695 1442.59 168.404L1442.38 176.436Z" fill="#CFCFCF"/>
<path d="M157.537 412.436L157.331 404.233C157.265 401.531 157.169 398.858 157.141 396.201L157.537 396.596C151.139 396.671 144.739 396.827 138.341 396.834L119.143 396.925L119.867 396.201L119.79 412.436L119.143 411.789C122.307 411.815 125.462 411.8 128.634 411.87L138.173 412.031L157.537 412.436V412.436ZM157.537 412.436L138.508 412.841L128.85 413.003C125.622 413.072 122.38 413.059 119.143 413.083L118.501 413.088L118.497 412.436L118.418 396.201L118.416 395.473L119.143 395.476L138.341 395.567C144.739 395.574 151.139 395.73 157.537 395.804L157.936 395.81L157.931 396.201C157.905 398.955 157.808 401.695 157.741 404.404L157.537 412.436Z" fill="#CFCFCF"/>
<path d="M519.87 155.981L519.664 147.779C519.599 145.075 519.502 142.403 519.475 139.746L519.87 140.142C513.471 140.216 507.073 140.371 500.674 140.379L481.477 140.47L482.201 139.746L482.123 155.981L481.477 155.335C484.64 155.36 487.795 155.347 490.967 155.415L500.506 155.577L519.87 155.981ZM519.87 155.981L500.841 156.386L491.183 156.548C487.956 156.616 484.712 156.603 481.477 156.628L480.834 156.634L480.831 155.981L480.753 139.746L480.75 139.018L481.477 139.02L500.674 139.112C507.073 139.119 513.471 139.274 519.87 139.35L520.269 139.354L520.266 139.746C520.239 142.5 520.142 145.239 520.077 147.95L519.87 155.981Z" fill="#CFCFCF"/>
<g opacity="0.15">
<g opacity="0.6" filter="url(#filter0_f_4_407)">
<ellipse cx="480.644" cy="507.978" rx="359.918" ry="342.01" transform="rotate(-15 480.644 507.978)" fill="#EFD000"/>
</g>
<g opacity="0.6" filter="url(#filter1_f_4_407)">
<ellipse cx="1527.02" cy="304.793" rx="279.797" ry="266.835" transform="rotate(-15 1527.02 304.793)" fill="#EFD000"/>
</g>
<g opacity="0.6" filter="url(#filter2_f_4_407)">
<ellipse cx="-39.6728" cy="725.579" rx="279.797" ry="265.875" transform="rotate(-15 -39.6728 725.579)" fill="#FF9900"/>
</g>
<g opacity="0.6" filter="url(#filter3_f_4_407)">
<ellipse cx="951.71" cy="534.466" rx="389.897" ry="370.497" transform="rotate(-15 951.71 534.466)" fill="#F94B00"/>
<ellipse cx="951.71" cy="534.466" rx="389.897" ry="370.497" transform="rotate(-15 951.71 534.466)" fill="#F94B00"/>
</g>
</g>
<g opacity="0.5">
<path d="M684.126 272.445C678.27 252.217 656.448 239.576 634.987 246.697C615.462 253.175 604.515 273.982 610.215 293.891C616.014 314.147 637.455 326.076 657.597 320.287C678.23 314.357 690.038 293.063 684.126 272.445ZM660.075 324.139C637.464 331.262 613.419 318.738 606.301 296.133C599.166 273.471 611.702 249.407 634.341 242.287C656.924 235.182 681.025 247.735 688.125 270.477C695.151 292.987 682.602 317.044 660.075 324.139Z" fill="#BCBABA"/>
<path d="M641.405 276.771C641.781 277.963 642.167 279.153 642.528 280.351C642.649 280.754 642.832 280.915 643.259 280.766C644.513 280.331 645.792 279.963 647.024 279.474C648.371 278.939 649.098 277.742 648.925 276.306C648.816 275.412 648.607 274.498 648.259 273.67C647.424 271.676 645.582 270.882 643.517 271.516C642.571 271.807 641.635 272.134 640.684 272.401C640.218 272.534 640.124 272.753 640.27 273.195C640.665 274.382 641.029 275.578 641.405 276.771H641.405ZM647.339 286.236C646.644 286.455 645.955 286.696 645.252 286.886C644.79 287.012 644.698 287.236 644.842 287.682C645.74 290.483 646.63 293.287 647.494 296.1C647.661 296.645 647.919 296.709 648.407 296.544C649.614 296.133 650.841 295.78 652.049 295.373C654.474 294.554 655.69 292.582 655.362 290.045C654.908 286.545 652.104 284.739 648.754 285.789C648.282 285.937 647.81 286.087 647.339 286.236L647.339 286.236ZM638.894 257.488C640.35 257.028 641.677 256.608 643.101 256.158C643.237 256.592 643.36 256.982 643.483 257.371C644.001 259.013 644.542 260.648 645.024 262.3C645.204 262.915 645.468 262.991 646.086 262.893C647.904 262.603 649.743 262.235 651.569 262.251C656.294 262.291 659.383 264.879 660.48 269.486C660.679 270.32 660.855 271.169 660.944 272.021C661.177 274.248 660.35 276.102 658.812 277.672C658.451 278.04 658.074 278.395 657.634 278.826C658.418 278.898 659.11 278.928 659.794 279.03C663.73 279.614 666.305 281.843 667.605 285.578C668.201 287.288 668.608 289.035 668.497 290.863C668.345 293.366 667.333 295.423 665.455 297.126C663.338 299.043 660.839 300.215 658.207 301.162C657.587 301.386 657.397 301.602 657.626 302.272C658.171 303.877 658.614 305.514 659.127 307.128C659.254 307.528 659.214 307.787 658.799 307.919C657.635 308.29 656.47 308.655 655.19 309.061C655.018 308.516 654.864 308.029 654.711 307.543C654.28 306.175 653.833 304.812 653.425 303.437C653.284 302.967 653.092 302.794 652.591 302.976C651.815 303.258 651.018 303.483 650.148 303.758C650.817 305.878 651.457 307.905 652.112 309.981C650.678 310.434 649.328 310.86 647.894 311.314C647.241 309.245 646.602 307.218 645.933 305.097C642.41 306.21 638.972 307.297 635.486 308.397C634.73 306.001 634.005 303.703 633.252 301.315C634.281 300.99 635.288 300.672 636.338 300.34C633.774 292.209 631.238 284.167 628.679 276.052C627.654 276.375 626.671 276.687 625.618 277.019C624.871 274.652 624.147 272.357 623.393 269.966C626.82 268.883 630.258 267.796 633.787 266.682C633.049 264.34 632.34 262.093 631.615 259.795C633.036 259.346 634.367 258.926 635.8 258.473C636.504 260.707 637.212 262.952 637.941 265.264C639.016 264.925 639.99 264.617 641.037 264.286C640.326 262.032 639.624 259.803 638.893 257.487L638.894 257.488Z" fill="#BCBABA"/>
<path d="M664.952 249.074C669.485 251.287 673.559 254.458 676.894 258.287C680.208 262.14 682.747 266.666 684.333 271.516C685.936 276.364 686.496 281.55 686.07 286.644C685.644 291.742 684.184 296.751 681.836 301.299C679.455 305.832 676.183 309.893 672.252 313.164C668.321 316.428 663.755 318.945 658.865 320.405C653.983 321.881 648.821 322.389 643.768 321.876C638.721 321.33 633.791 319.802 629.384 317.349C638.421 321.832 649.114 322.636 658.585 319.513C663.308 317.951 667.753 315.535 671.542 312.316C675.338 309.111 678.478 305.148 680.759 300.738C683.07 296.345 684.521 291.497 684.971 286.548C685.437 281.596 684.872 276.566 683.446 271.795C680.579 262.237 673.8 253.922 664.952 249.075V249.074Z" fill="#FEFEFE"/>
<path d="M629.108 317.363C624.582 315.137 620.517 311.953 617.194 308.114C613.892 304.251 611.367 299.717 609.795 294.862C608.207 290.008 607.663 284.82 608.105 279.729C608.546 274.631 610.021 269.627 612.385 265.086C614.778 260.562 618.063 256.51 622.004 253.251C625.944 249.998 630.518 247.496 635.413 246.05C640.299 244.589 645.463 244.098 650.514 244.626C655.559 245.186 660.486 246.731 664.885 249.197C655.861 244.687 645.172 243.85 635.69 246.944C630.962 248.492 626.511 250.894 622.712 254.101C618.906 257.294 615.753 261.249 613.458 265.651C611.135 270.038 609.669 274.879 609.203 279.829C608.722 284.778 609.272 289.81 610.683 294.585C613.522 304.152 620.275 312.487 629.108 317.363V317.363Z" fill="#C8C8C9"/>
<path d="M625.619 277.02C625.396 276.443 625.184 275.864 624.975 275.284C624.768 274.702 624.548 274.125 624.35 273.541L623.148 270.043L623.065 269.803L623.316 269.719C626.763 268.568 630.227 267.471 633.712 266.438L633.545 266.759L632.549 263.286L632.074 261.544C631.916 260.962 631.761 260.381 631.616 259.795C631.833 260.358 632.041 260.923 632.245 261.489L632.856 263.19L634.032 266.605L634.114 266.843L633.865 266.925C630.419 268.082 626.954 269.175 623.472 270.211L623.639 269.889L624.661 273.443C624.835 274.035 624.985 274.633 625.148 275.229C625.311 275.824 625.47 276.42 625.619 277.02V277.02Z" fill="#FEFEFE"/>
<path d="M635.487 308.398C635.061 307.234 634.661 306.063 634.252 304.895C633.837 303.728 633.458 302.549 633.059 301.377L632.995 301.187L633.192 301.123L636.262 300.095L636.093 300.419L634.141 294.359C633.49 292.339 632.882 290.305 632.25 288.279C631.614 286.255 631.018 284.218 630.419 282.18C629.811 280.147 629.239 278.103 628.679 276.053C629.395 278.053 630.1 280.055 630.77 282.07C631.446 284.082 632.127 286.092 632.768 288.115C633.412 290.137 634.082 292.151 634.707 294.18L636.586 300.263L636.664 300.514L636.417 300.588L633.315 301.51L633.447 301.255C633.793 302.444 634.158 303.626 634.488 304.82C634.823 306.013 635.168 307.201 635.487 308.398V308.398Z" fill="#FEFEFE"/>
<path d="M648.407 296.543C649.058 296.265 649.72 296.025 650.376 295.765L652.363 295.047C653.593 294.572 654.564 293.479 654.956 292.228C655.363 290.966 655.155 289.559 654.584 288.332C654.303 287.716 653.9 287.155 653.395 286.691C652.907 286.21 652.304 285.839 651.642 285.598C653.046 285.838 654.301 286.832 655 288.117C655.716 289.381 655.988 290.966 655.535 292.411C655.072 293.832 653.956 295.056 652.506 295.491C651.146 295.871 649.788 296.238 648.408 296.543L648.407 296.543Z" fill="#FEFEFE"/>
<path d="M643.416 280.718C644.477 280.253 645.591 279.834 646.642 279.437C647.607 278.982 648.284 278.001 648.487 276.955C648.71 275.897 648.447 274.766 647.965 273.767C647.466 272.775 646.686 271.89 645.668 271.32C646.783 271.679 647.755 272.506 648.37 273.543C648.98 274.573 649.326 275.832 649.08 277.073C648.839 278.293 648.018 279.43 646.822 279.88C645.675 280.228 644.565 280.475 643.416 280.718V280.718Z" fill="#FEFEFE"/>
<path d="M645.934 305.098C646.489 306.062 646.866 307.082 647.203 308.115C647.522 309.153 647.797 310.206 647.894 311.315C647.338 310.351 646.96 309.331 646.625 308.298C646.307 307.258 646.032 306.207 645.934 305.098Z" fill="#FEFEFE"/>
<path d="M653.075 302.934C653.628 303.892 654.005 304.906 654.339 305.932C654.656 306.965 654.929 308.012 655.024 309.114C654.47 308.156 654.093 307.143 653.76 306.115C653.445 305.083 653.171 304.036 653.075 302.934Z" fill="#FEFEFE"/>
</g>
<g opacity="0.5">
<path d="M134.126 55.4454C128.27 35.2167 106.448 22.5759 84.987 29.6968C65.4617 36.1751 54.5154 56.9823 60.2148 76.891C66.0143 97.1466 87.4545 109.076 107.597 103.287C128.23 97.3565 140.038 76.0629 134.126 55.4454ZM110.075 107.139C87.4642 114.262 63.4187 101.738 56.3011 79.1332C49.1659 56.4707 61.702 32.4074 84.3405 25.2865C106.924 18.1818 131.025 30.7348 138.125 53.4771C145.151 75.9869 132.602 100.044 110.075 107.139Z" fill="#BCBABA"/>
<path d="M91.4051 59.7707C91.7814 60.9631 92.1674 62.1533 92.5279 63.3508C92.6488 63.7536 92.8322 63.9149 93.2589 63.7662C94.5126 63.3306 95.7922 62.9634 97.0244 62.4745C98.3709 61.9387 99.0983 60.742 98.9249 59.3055C98.8163 58.4116 98.6072 57.4982 98.259 56.6701C97.4237 54.6763 95.5818 53.8825 93.5168 54.5161C92.571 54.807 91.6353 55.1336 90.6838 55.4014C90.2183 55.5335 90.1237 55.7532 90.2705 56.1953C90.6648 57.3816 91.0292 58.5779 91.4055 59.7707H91.4051ZM97.3388 69.2361C96.6441 69.4546 95.9552 69.6958 95.2519 69.8863C94.79 70.0123 94.6982 70.2359 94.8418 70.6816C95.7401 73.4833 96.6304 76.2871 97.4942 79.1004C97.6611 79.6454 97.9187 79.7088 98.4072 79.5439C99.6142 79.1335 100.841 78.7803 102.049 78.3728C104.474 77.5537 105.69 75.5822 105.362 73.0451C104.908 69.5446 102.104 67.7391 98.754 68.7893C98.2817 68.9369 97.8104 69.0867 97.3391 69.2364L97.3388 69.2361ZM88.8941 40.4878C90.3496 40.028 91.6774 39.6079 93.1006 39.1582C93.2369 39.5924 93.3603 39.9823 93.4834 40.3711C94.0014 42.0132 94.5421 43.6477 95.0242 45.2999C95.204 45.9148 95.4677 45.9908 96.0865 45.8932C97.9043 45.6034 99.7426 45.2351 101.569 45.2505C106.294 45.2909 109.383 47.8794 110.48 52.4856C110.679 53.3201 110.855 54.1687 110.944 55.0209C111.177 57.2483 110.35 59.1025 108.812 60.6722C108.451 61.0405 108.074 61.3951 107.634 61.8257C108.418 61.8981 109.11 61.9283 109.794 62.0302C113.73 62.6141 116.305 64.8434 117.605 68.5783C118.201 70.2877 118.608 72.0353 118.497 73.8627C118.345 76.366 117.333 78.4232 115.455 80.1264C113.338 82.0428 110.839 83.2151 108.207 84.1623C107.587 84.3859 107.397 84.6019 107.626 85.2723C108.171 86.8765 108.614 88.5136 109.127 90.1276C109.254 90.5275 109.214 90.7868 108.799 90.9189C107.635 91.2897 106.47 91.6555 105.19 92.0605C105.018 91.5158 104.864 91.0294 104.711 90.543C104.28 89.1749 103.833 87.8122 103.425 86.4369C103.284 85.9671 103.092 85.7943 102.591 85.9761C101.815 86.258 101.018 86.4827 100.148 86.7584C100.817 88.8783 101.457 90.9048 102.112 92.9815C100.678 93.4337 99.3282 93.8603 97.8935 94.3139C97.2413 92.2448 96.602 90.2183 95.9329 88.097C92.4102 89.2099 88.9721 90.2968 85.4858 91.3966C84.73 89.0014 84.0055 86.703 83.2522 84.315C84.2814 83.9899 85.2876 83.6723 86.3384 83.3397C83.7742 75.2089 81.2379 67.167 78.6787 59.0517C77.6538 59.3754 76.671 59.6868 75.6176 60.0194C74.8708 57.6519 74.1473 55.3575 73.3926 52.9659C76.8202 51.8825 80.2576 50.7964 83.7875 49.6824C83.0489 47.3405 82.3398 45.0928 81.6146 42.7952C83.036 42.3459 84.3667 41.9264 85.7995 41.4732C86.5039 43.7071 87.2123 45.9522 87.9415 48.2639C89.0164 47.9248 89.9895 47.6173 91.0375 47.2861C90.3259 45.0316 89.6236 42.8031 88.8934 40.4874L88.8941 40.4878Z" fill="#BCBABA"/>
<path d="M114.952 32.0742C119.485 34.2869 123.559 37.458 126.894 41.2873C130.208 45.1395 132.747 49.6657 134.333 54.5156C135.936 59.3644 136.496 64.5502 136.07 69.6442C135.644 74.7421 134.184 79.7512 131.836 84.299C129.455 88.8317 126.183 92.8935 122.252 96.1639C118.321 99.4279 113.755 101.945 108.865 103.405C103.983 104.881 98.8209 105.389 93.7679 104.876C88.7214 104.33 83.7907 102.802 79.3838 100.349C88.4214 104.832 99.1138 105.636 108.585 102.513C113.308 100.951 117.753 98.5351 121.542 95.3157C125.338 92.1111 128.478 88.1476 130.759 83.7381C133.07 79.345 134.521 74.4973 134.971 69.5481C135.437 64.5963 134.872 59.5657 133.446 54.7953C130.579 45.2371 123.8 36.9223 114.952 32.0746V32.0742Z" fill="#FEFEFE"/>
<path d="M79.1082 100.363C74.5822 98.1366 70.5174 94.9529 67.1937 91.1136C63.892 87.2513 61.3669 82.7175 59.7952 77.8622C58.2069 73.0083 57.6633 67.82 58.1047 62.7286C58.5465 57.6306 60.0207 52.6267 62.3846 48.0864C64.778 43.5616 68.0629 39.5099 72.0043 36.251C75.9439 32.9981 80.5184 30.4963 85.4135 29.0497C90.2992 27.5891 95.463 27.0977 100.514 27.6262C105.559 28.186 110.486 29.7306 114.885 32.1967C105.861 27.6871 95.1716 26.85 85.6905 29.9437C80.962 31.4918 76.5108 33.8935 72.7115 37.1013C68.9058 40.2944 65.7533 44.2493 63.4585 48.6513C61.1345 53.0378 59.6689 57.8794 59.2034 62.8287C58.7224 67.7776 59.2721 72.8096 60.683 77.585C63.5218 87.1523 70.275 95.4872 79.1082 100.363V100.363Z" fill="#C8C8C9"/>
<path d="M75.6186 60.0199C75.3959 59.4432 75.1843 58.8642 74.975 58.2839C74.7681 57.7021 74.548 57.1253 74.3501 56.541L73.1478 53.0434L73.0654 52.8032L73.3158 52.7194C76.7626 51.5676 80.2269 50.4714 83.7118 49.4377L83.5445 49.7589L82.5487 46.2864L82.0739 44.5439C81.9156 43.9621 81.7609 43.3807 81.6155 42.7949C81.8332 43.3576 82.0411 43.9229 82.2447 44.4892L82.8559 46.19L84.032 49.6051L84.1136 49.8428L83.8654 49.9252C80.4194 51.0823 76.9543 52.1746 73.4716 53.2112L73.6389 52.8886L74.6613 56.4434C74.8347 57.0353 74.9854 57.6333 75.1484 58.2292C75.311 58.8236 75.4696 59.4205 75.6186 60.0199V60.0199Z" fill="#FEFEFE"/>
<path d="M85.4867 91.3977C85.0615 90.2344 84.6614 89.0633 84.252 87.895C83.8373 86.7278 83.4581 85.5491 83.0595 84.3768L82.9951 84.1875L83.1919 84.1227L86.2616 83.0952L86.0932 83.4192L84.1409 77.3585C83.4901 75.3391 82.8818 73.305 82.25 71.2792C81.614 69.2547 81.0183 67.2177 80.4189 65.1804C79.811 63.1469 79.2393 61.1027 78.6792 59.0527C79.3955 61.053 80.1002 63.0555 80.7697 65.0702C81.4464 67.082 82.1274 69.092 82.7677 71.1154C83.4124 73.1373 84.0822 75.1512 84.7075 77.1796L86.5864 83.2629L86.6638 83.5142L86.4166 83.588L83.3145 84.51L83.4469 84.2548C83.793 85.4436 84.1581 86.6259 84.4877 87.8201C84.8226 89.0125 85.1676 90.2013 85.4867 91.3977V91.3977Z" fill="#FEFEFE"/>
<path d="M98.4072 79.5435C99.058 79.2652 99.7203 79.025 100.376 78.7647L102.363 78.0472C103.593 77.572 104.564 76.4786 104.956 75.2275C105.363 73.9663 105.155 72.559 104.584 71.3324C104.303 70.7164 103.9 70.1548 103.395 69.6914C102.907 69.2101 102.304 68.8389 101.642 68.5977C103.046 68.8378 104.301 69.8322 105 71.1175C105.716 72.3811 105.988 73.9663 105.535 75.4115C105.072 76.8325 103.956 78.0559 102.506 78.4915C101.146 78.871 99.7876 79.2382 98.4076 79.5431L98.4072 79.5435Z" fill="#FEFEFE"/>
<path d="M93.4155 63.7177C94.4768 63.2529 95.5913 62.8338 96.6421 62.4374C97.6073 61.9816 98.284 61.0013 98.4869 59.9547C98.7103 58.8966 98.4466 57.7661 97.9645 56.7667C97.4656 55.7748 96.6856 54.8895 95.6675 54.3203C96.7835 54.6785 97.7552 55.5055 98.3703 56.5431C98.9797 57.5731 99.3258 58.8318 99.0805 60.0728C98.8387 61.2932 98.0178 62.4298 96.8216 62.8795C95.6755 63.2276 94.5649 63.4754 93.4155 63.7177V63.7177Z" fill="#FEFEFE"/>
<path d="M95.9336 88.0977C96.489 89.0618 96.8664 90.0817 97.2031 91.1154C97.5219 92.153 97.7971 93.206 97.8942 94.3149C97.3381 93.3508 96.9596 92.3308 96.6247 91.2983C96.3074 90.2582 96.0322 89.2065 95.9336 88.0977Z" fill="#FEFEFE"/>
<path d="M103.075 85.9336C103.628 86.8923 104.005 87.9058 104.339 88.9322C104.656 89.9648 104.929 91.0125 105.024 92.1138C104.47 91.1561 104.093 90.1426 103.76 89.1151C103.445 88.0826 103.171 87.036 103.075 85.9336Z" fill="#FEFEFE"/>
</g>
<path d="M1526.55 263.704C1524.85 289.044 1502.91 308.321 1477.52 306.683C1452.05 305.033 1432.77 283.099 1434.41 257.628C1436.04 232.095 1457.99 212.805 1483.48 214.463C1508.93 216.118 1528.25 238.103 1526.55 263.704V263.704Z" fill="#EBECEC"/>
<path d="M1518.82 263.872C1520.66 242.893 1504.87 223.217 1482.28 222.103C1461.74 221.09 1444.02 236.536 1442.16 257.163C1440.26 278.146 1455.94 297.019 1476.82 298.9C1498.2 300.825 1516.89 285.236 1518.82 263.872H1518.82ZM1477.74 303.387C1454.08 301.859 1436.18 281.49 1437.7 257.837C1439.22 234.127 1459.59 216.217 1483.27 217.756C1506.89 219.292 1524.84 239.709 1523.26 263.481C1521.69 287.011 1501.3 304.91 1477.74 303.387Z" fill="#DCDDDC"/>
<path d="M1128 138.879H1128.76V130.35H1128V138.879Z" fill="#C8C8C9"/>
<g opacity="0.5">
<path d="M973.826 245.144C967.971 224.917 946.148 212.275 924.688 219.396C905.163 225.874 894.216 246.681 899.916 266.59C905.715 286.845 927.156 298.775 947.298 292.986C967.93 287.057 979.739 265.762 973.826 245.144V245.144ZM949.775 296.839C927.165 303.961 903.12 291.437 896.002 268.832C888.868 246.17 901.403 222.107 924.041 214.986C946.624 207.881 970.726 220.435 977.825 243.177C984.852 265.687 972.302 289.743 949.775 296.839V296.839Z" fill="#BCBABA"/>
<path d="M931.106 249.472C931.482 250.665 931.868 251.854 932.229 253.051C932.35 253.454 932.533 253.615 932.96 253.466C934.214 253.031 935.494 252.663 936.726 252.175C938.072 251.64 938.798 250.442 938.626 249.007C938.518 248.113 938.308 247.198 937.961 246.372C937.124 244.377 935.282 243.583 933.217 244.216C932.272 244.507 931.337 244.833 930.385 245.103C929.92 245.235 929.825 245.453 929.972 245.895C930.366 247.083 930.73 248.279 931.107 249.472H931.106ZM937.04 258.936C936.345 259.156 935.656 259.396 934.954 259.588C934.491 259.713 934.399 259.936 934.543 260.382C935.441 263.183 936.331 265.989 937.195 268.802C937.363 269.346 937.62 269.409 938.108 269.244C939.316 268.835 940.542 268.482 941.75 268.073C944.175 267.253 945.391 265.282 945.062 262.745C944.609 259.245 941.804 257.439 938.454 258.489C937.982 258.638 937.512 258.788 937.041 258.937L937.04 258.936ZM928.595 230.188C930.05 229.728 931.379 229.309 932.801 228.859C932.938 229.292 933.062 229.682 933.185 230.072C933.703 231.713 934.243 233.348 934.725 235C934.904 235.614 935.169 235.691 935.788 235.593C937.605 235.303 939.444 234.935 941.271 234.95C945.994 234.991 949.085 237.58 950.181 242.186C950.38 243.02 950.556 243.868 950.646 244.721C950.878 246.948 950.052 248.803 948.514 250.372C948.152 250.742 947.775 251.095 947.334 251.525C948.119 251.598 948.812 251.628 949.495 251.73C953.431 252.314 956.006 254.545 957.306 258.278C957.902 259.988 958.31 261.735 958.198 263.563C958.046 266.066 957.034 268.124 955.156 269.827C953.039 271.744 950.539 272.917 947.908 273.863C947.288 274.086 947.098 274.302 947.327 274.974C947.873 276.577 948.315 278.214 948.828 279.828C948.955 280.228 948.916 280.487 948.5 280.619C947.337 280.991 946.171 281.357 944.89 281.761C944.719 281.217 944.565 280.731 944.412 280.244C943.981 278.876 943.534 277.512 943.125 276.138C942.985 275.667 942.794 275.494 942.293 275.677C941.516 275.959 940.72 276.184 939.85 276.458C940.518 278.578 941.158 280.605 941.813 282.682C940.379 283.134 939.03 283.56 937.595 284.014C936.942 281.945 936.304 279.919 935.634 277.797C932.111 278.911 928.673 279.997 925.187 281.098C924.432 278.701 923.706 276.404 922.953 274.016C923.983 273.69 924.989 273.372 926.04 273.041C923.475 264.909 920.939 256.867 918.378 248.753C917.356 249.077 916.372 249.387 915.319 249.72C914.571 247.353 913.848 245.057 913.094 242.666C916.522 241.584 919.96 240.498 923.489 239.383C922.75 237.041 922.041 234.793 921.316 232.495C922.737 232.047 924.067 231.627 925.5 231.173C926.204 233.409 926.914 235.652 927.642 237.964C928.717 237.625 929.691 237.317 930.739 236.986C930.027 234.732 929.324 232.504 928.594 230.187L928.595 230.188Z" fill="#BCBABA"/>
<path d="M954.653 221.771C959.186 223.984 963.26 227.156 966.595 230.984C969.909 234.836 972.448 239.363 974.034 244.213C975.637 249.062 976.197 254.249 975.772 259.343C975.344 264.44 973.886 269.449 971.536 273.997C969.156 278.529 965.883 282.59 961.952 285.861C958.022 289.126 953.457 291.643 948.566 293.103C943.684 294.578 938.521 295.086 933.469 294.573C928.423 294.028 923.491 292.499 919.085 290.046C928.122 294.529 938.815 295.333 948.286 292.211C953.009 290.648 957.453 288.232 961.242 285.013C965.039 281.808 968.179 277.845 970.461 273.435C972.771 269.042 974.221 264.196 974.671 259.245C975.137 254.294 974.572 249.264 973.147 244.494C970.279 234.934 963.501 226.621 954.653 221.772V221.771Z" fill="#FEFEFE"/>
<path d="M918.809 290.062C914.282 287.836 910.218 284.652 906.895 280.813C903.593 276.95 901.068 272.416 899.496 267.562C897.908 262.709 897.365 257.52 897.806 252.428C898.248 247.33 899.721 242.327 902.085 237.786C904.479 233.261 907.764 229.209 911.705 225.951C915.645 222.697 920.219 220.196 925.115 218.751C930 217.288 935.164 216.797 940.215 217.325C945.261 217.887 950.186 219.43 954.586 221.897C945.561 217.386 934.872 216.549 925.391 219.643C920.663 221.191 916.211 223.594 912.413 226.801C908.606 229.994 905.453 233.948 903.159 238.351C900.835 242.737 899.369 247.579 898.904 252.528C898.423 257.478 898.974 262.509 900.384 267.284C903.223 276.851 909.975 285.186 918.809 290.062V290.062Z" fill="#C8C8C9"/>
<path d="M915.319 249.719C915.097 249.142 914.885 248.563 914.676 247.983C914.469 247.402 914.249 246.826 914.051 246.242L912.848 242.743L912.766 242.504L913.016 242.42C916.464 241.266 919.928 240.171 923.412 239.138L923.244 239.458L922.249 235.986L921.774 234.243C921.616 233.661 921.461 233.08 921.316 232.494C921.533 233.057 921.742 233.622 921.945 234.188L922.556 235.889L923.733 239.304L923.814 239.542L923.565 239.626C920.12 240.782 916.655 241.875 913.172 242.911L913.339 242.587L914.361 246.143C914.535 246.735 914.686 247.334 914.849 247.928C915.012 248.524 915.171 249.12 915.319 249.719V249.719Z" fill="#FEFEFE"/>
<path d="M925.188 281.097C924.763 279.933 924.363 278.761 923.953 277.593C923.538 276.426 923.16 275.247 922.761 274.076L922.697 273.887L922.893 273.821L925.963 272.793L925.794 273.117L923.842 267.057C923.191 265.037 922.584 263.003 921.952 260.977C921.314 258.953 920.719 256.916 920.12 254.878C919.512 252.845 918.94 250.801 918.379 248.752C919.096 250.751 919.802 252.754 920.47 254.768C921.148 256.78 921.829 258.79 922.469 260.813C923.114 262.835 923.783 264.849 924.409 266.878L926.287 272.962L926.364 273.212L926.118 273.286L923.015 274.208L923.148 273.953C923.493 275.142 923.859 276.325 924.189 277.518C924.524 278.711 924.869 279.899 925.188 281.097V281.097Z" fill="#FEFEFE"/>
<path d="M938.107 269.242C938.759 268.966 939.421 268.726 940.077 268.465L942.063 267.748C943.294 267.273 944.265 266.178 944.657 264.927C945.064 263.666 944.857 262.26 944.285 261.031C944.004 260.415 943.601 259.854 943.096 259.392C942.607 258.909 942.005 258.54 941.342 258.297C942.747 258.537 944.001 259.531 944.701 260.817C945.416 262.08 945.689 263.666 945.236 265.111C944.773 266.532 943.657 267.756 942.207 268.19C940.847 268.572 939.488 268.937 938.108 269.242L938.107 269.242Z" fill="#FEFEFE"/>
<path d="M933.116 253.415C934.177 252.951 935.292 252.532 936.342 252.135C937.308 251.679 937.985 250.699 938.188 249.652C938.411 248.595 938.147 247.464 937.665 246.464C937.166 245.474 936.387 244.587 935.368 244.02C936.485 244.376 937.455 245.203 938.071 246.242C938.68 247.271 939.027 248.53 938.782 249.77C938.539 250.991 937.718 252.128 936.523 252.577C935.377 252.925 934.266 253.173 933.116 253.415V253.415Z" fill="#FEFEFE"/>
<path d="M935.634 277.797C936.19 278.762 936.569 279.781 936.905 280.815C937.223 281.854 937.497 282.905 937.595 284.014C937.039 283.05 936.661 282.03 936.326 280.997C936.009 279.957 935.733 278.906 935.634 277.797Z" fill="#FEFEFE"/>
<path d="M942.777 275.633C943.33 276.59 943.706 277.604 944.041 278.631C944.357 279.664 944.631 280.711 944.725 281.813C944.17 280.855 943.795 279.842 943.461 278.814C943.146 277.782 942.872 276.735 942.777 275.633Z" fill="#FEFEFE"/>
</g>
<g opacity="0.5">
<path d="M1448.29 19.9659C1453.26 -0.495372 1440.62 -22.3287 1418.47 -26.8387C1398.31 -30.943 1378.47 -18.3457 1373.51 1.76089C1368.47 22.2171 1381.14 43.2429 1401.49 48.253C1422.33 53.3837 1443.16 40.794 1448.29 19.9659ZM1401.72 52.8278C1378.57 47.7464 1363.94 24.9076 1369 1.75477C1374.08 -21.4538 1396.92 -36.0845 1420.1 -30.9865C1443.22 -25.903 1457.88 -3.01193 1452.73 20.2514C1447.64 43.2746 1424.79 57.8912 1401.72 52.8278Z" fill="#BCBABA"/>
<path d="M1409.08 2.44505C1408.81 3.66698 1408.55 4.89143 1408.27 6.10939C1408.18 6.51838 1408.26 6.74951 1408.7 6.8334C1410 7.07965 1411.3 7.39864 1412.61 7.58765C1414.04 7.79467 1415.27 7.11926 1415.83 5.78681C1416.18 4.95731 1416.46 4.06086 1416.57 3.16908C1416.83 1.02405 1415.63 -0.582738 1413.52 -1.06121C1412.56 -1.27974 1411.58 -1.46264 1410.62 -1.70386C1410.16 -1.8205 1409.96 -1.67831 1409.87 -1.22108C1409.62 0.00444633 1409.35 1.22386 1409.08 2.44542V2.44505ZM1409.52 13.6101C1408.81 13.4539 1408.09 13.3192 1407.39 13.1353C1406.92 13.0147 1406.73 13.1619 1406.63 13.6202C1406.02 16.4982 1405.4 19.3734 1404.75 22.2439C1404.62 22.799 1404.81 22.983 1405.32 23.082C1406.57 23.3297 1407.81 23.6332 1409.06 23.8809C1411.57 24.3777 1413.61 23.2739 1414.58 20.9089C1415.93 17.6474 1414.4 14.6848 1410.97 13.9262C1410.48 13.8197 1410 13.7156 1409.52 13.6101H1409.52ZM1416.49 -15.5317C1417.98 -15.2055 1419.34 -14.9081 1420.8 -14.5895C1420.7 -14.1463 1420.61 -13.746 1420.53 -13.346C1420.16 -11.6643 1419.82 -9.97758 1419.41 -8.30419C1419.26 -7.6817 1419.45 -7.4837 1420.04 -7.26121C1421.76 -6.6074 1423.54 -6.01155 1425.12 -5.08809C1429.19 -2.7004 1430.59 1.08417 1429.25 5.62587C1429 6.44889 1428.73 7.27191 1428.39 8.05568C1427.48 10.1042 1425.84 11.3006 1423.73 11.8964C1423.23 12.0361 1422.73 12.1553 1422.13 12.309C1422.78 12.7623 1423.36 13.1345 1423.91 13.5626C1427.03 16.0302 1428.15 19.246 1427.43 23.1324C1427.09 24.9117 1426.58 26.6315 1425.57 28.1616C1424.19 30.2559 1422.29 31.5376 1419.82 32.0783C1417.03 32.6882 1414.28 32.4596 1411.52 31.9707C1410.88 31.8562 1410.6 31.949 1410.47 32.645C1410.14 34.3076 1409.71 35.9486 1409.36 37.6029C1409.27 38.0144 1409.1 38.2189 1408.68 38.1263C1407.48 37.8686 1406.29 37.6054 1404.98 37.3185C1405.1 36.7608 1405.21 36.2629 1405.32 35.7653C1405.62 34.363 1405.91 32.9582 1406.24 31.5627C1406.36 31.0853 1406.28 30.8402 1405.75 30.7487C1404.94 30.6065 1404.13 30.4045 1403.24 30.209C1402.77 32.3807 1402.32 34.457 1401.85 36.5844C1400.38 36.2629 1399 35.9619 1397.53 35.6393C1397.99 33.5209 1398.45 31.4447 1398.92 29.2705C1395.31 28.4817 1391.79 27.7119 1388.22 26.9307C1388.75 24.4771 1389.27 22.1225 1389.8 19.6751C1390.86 19.9062 1391.89 20.1323 1392.96 20.3674C1394.78 12.0372 1396.58 3.79839 1398.4 -4.51493C1397.35 -4.74499 1396.34 -4.96461 1395.26 -5.20079C1395.79 -7.62555 1396.3 -9.97614 1396.84 -12.4272C1400.35 -11.6589 1403.87 -10.8892 1407.49 -10.0993C1408.01 -12.497 1408.51 -14.7994 1409.03 -17.1543C1410.48 -16.8353 1411.85 -16.5369 1413.31 -16.2157C1412.81 -13.927 1412.31 -11.6283 1411.8 -9.25969C1412.9 -9.01848 1413.89 -8.80139 1414.97 -8.56629C1415.47 -10.8755 1415.97 -13.1584 1416.49 -15.531L1416.49 -15.5317Z" fill="#BCBABA"/>
<path d="M1443.28 -9.85547C1446.11 -5.67847 1448.07 -0.898074 1449.05 4.0843C1450.01 9.07531 1449.96 14.2647 1448.93 19.2636C1447.91 24.2661 1445.81 29.044 1442.91 33.2502C1440.01 37.4603 1436.25 41.0775 1431.95 43.8525C1427.63 46.5984 1422.78 48.4918 1417.74 49.3706C1412.71 50.2458 1407.5 50.1544 1402.53 48.9858C1397.56 47.8351 1392.83 45.7041 1388.7 42.7437C1384.6 39.7565 1381.08 35.9759 1378.47 31.6524C1384.08 40.0424 1392.96 46.0645 1402.73 48.0727C1407.6 49.0696 1412.66 49.1877 1417.54 48.2823C1422.43 47.3919 1427.13 45.5173 1431.3 42.8301C1435.49 40.1691 1439.15 36.6884 1442.01 32.6191C1444.87 28.5551 1446.88 23.9115 1448.02 19.0642C1450.28 9.34315 1448.54 -1.24333 1443.28 -9.85547V-9.85547Z" fill="#FEFEFE"/>
<path d="M1378.23 31.5291C1375.41 27.3446 1373.47 22.5577 1372.49 17.5728C1371.55 12.5793 1371.61 7.38842 1372.66 2.39488C1373.7 -2.60657 1375.81 -7.37689 1378.72 -11.5741C1381.64 -15.7752 1385.41 -19.3823 1389.72 -22.1433C1394.04 -24.8766 1398.91 -26.7548 1403.95 -27.6185C1408.98 -28.4768 1414.19 -28.3703 1419.16 -27.1865C1424.12 -26.0207 1428.85 -23.8754 1432.96 -20.9012C1437.06 -17.9026 1440.57 -14.1104 1443.16 -9.7797C1437.57 -18.1859 1428.72 -24.235 1418.95 -26.2735C1414.08 -27.2855 1409.03 -27.4191 1404.14 -26.5287C1399.25 -25.655 1394.55 -23.7944 1390.37 -21.1187C1386.17 -18.4703 1382.49 -15.0008 1379.63 -10.9404C1376.75 -6.88654 1374.72 -2.24691 1373.57 2.59685C1371.28 12.3089 1372.99 22.9019 1378.23 31.5291V31.5291Z" fill="#C8C8C9"/>
<path d="M1388.22 26.93C1388.43 25.7095 1388.67 24.494 1388.89 23.2761C1389.11 22.0567 1389.37 20.8463 1389.61 19.6323L1389.64 19.4353L1389.85 19.476L1393.02 20.1136L1392.71 20.3106L1394.03 14.0821C1394.47 12.0055 1394.96 9.93971 1395.42 7.86669C1395.87 5.79404 1396.37 3.73038 1396.86 1.66528C1397.34 -0.400902 1397.87 -2.45953 1398.4 -4.51562C1398.03 -2.42532 1397.64 -0.336099 1397.22 1.74412C1396.81 3.82578 1396.4 5.90852 1395.95 7.9837C1395.5 10.0589 1395.08 12.1377 1394.61 14.2092L1393.22 20.4211L1393.16 20.6774L1392.91 20.6177L1389.76 19.8735L1390 19.7172C1389.71 20.9212 1389.44 22.129 1389.13 23.3294C1388.83 24.5297 1388.54 25.7325 1388.22 26.93V26.93Z" fill="#FEFEFE"/>
<path d="M1405.32 23.0812C1406.02 23.1651 1406.72 23.2871 1407.42 23.3887L1409.5 23.7555C1410.8 23.955 1412.19 23.4902 1413.15 22.5999C1414.13 21.7085 1414.65 20.385 1414.76 19.036C1414.82 18.3617 1414.75 17.6744 1414.55 17.0216C1414.36 16.3599 1414.02 15.7389 1413.57 15.1992C1414.67 16.1072 1415.26 17.5944 1415.23 19.0565C1415.22 20.5092 1414.67 22.0195 1413.56 23.0477C1412.45 24.05 1410.87 24.5555 1409.4 24.2099C1408.03 23.8632 1406.67 23.5039 1405.32 23.0809L1405.32 23.0812Z" fill="#FEFEFE"/>
<path d="M1408.86 6.86805C1410.01 6.99226 1411.19 7.18416 1412.3 7.36309C1413.36 7.44841 1414.43 6.9354 1415.13 6.12858C1415.85 5.32357 1416.18 4.21073 1416.26 3.10329C1416.32 1.99478 1416.09 0.838756 1415.49 -0.162109C1416.28 0.704107 1416.71 1.90442 1416.73 3.11229C1416.74 4.30865 1416.42 5.57234 1415.59 6.5264C1414.77 7.46498 1413.49 8.04282 1412.23 7.83688C1411.06 7.56759 1409.98 7.22844 1408.86 6.86805V6.86805Z" fill="#FEFEFE"/>
<path d="M1398.92 29.2695C1398.92 30.3831 1398.75 31.4563 1398.52 32.5195C1398.28 33.5801 1398 34.6292 1397.53 35.6387C1397.53 34.5263 1397.71 33.453 1397.93 32.3899C1398.17 31.3307 1398.46 30.2805 1398.92 29.2695V29.2695Z" fill="#FEFEFE"/>
<path d="M1406.19 30.9492C1406.2 32.0552 1406.02 33.1223 1405.8 34.1801C1405.56 35.2331 1405.28 36.2772 1404.81 37.2806C1404.81 36.1743 1404.98 35.1075 1405.2 34.0508C1405.44 32.9978 1405.73 31.9537 1406.19 30.9492Z" fill="#FEFEFE"/>
</g>
<path d="M1108.23 467.973C1108.62 468.142 1109.01 468.312 1109.4 468.48L1109.9 467.311C1109.51 467.145 1109.12 466.977 1108.74 466.809L1108.23 467.973V467.973Z" fill="#29383E"/>
<path d="M1010.45 153.392C1009.61 149.677 1009.25 146.285 1009.61 144.084C1009.63 143.971 1009.65 143.859 1009.67 143.749C1009.65 143.86 1009.63 143.975 1009.61 144.089C1009.25 146.285 1009.61 149.673 1010.45 153.392V153.392ZM1010.18 141.873C1010.18 141.843 1010.19 141.814 1010.21 141.785C1010.2 141.814 1010.19 141.843 1010.18 141.873Z" fill="#E2AA1F"/>
<path d="M1010.31 141.497H1010.31C1010.42 141.208 1010.53 140.922 1010.66 140.641C1010.86 140.195 1011.09 139.764 1011.35 139.346C1010.94 140.029 1010.6 140.748 1010.31 141.497V141.497Z" fill="#D4D8D8"/>
<path d="M1010.21 141.785C1010.24 141.689 1010.27 141.593 1010.31 141.498H1010.31C1010.27 141.593 1010.24 141.69 1010.21 141.785Z" fill="#A9ABAD"/>
<path d="M103.341 119.398C103.261 144.793 82.5857 165.43 57.1491 165.412C31.6268 165.388 10.9874 144.727 11 119.203C11.0115 93.6186 31.6804 72.9694 57.234 73C82.7318 73.0303 103.413 93.7392 103.341 119.398Z" fill="#FCC32A"/>
<path d="M57.1508 162.115C50.2979 162.102 43.8258 160.502 38.0907 157.645C36.3887 156.793 34.7655 155.854 33.2049 154.787C30.2338 152.793 27.531 150.418 25.1578 147.751C24.144 146.633 23.2036 145.452 22.3165 144.22C20.6793 141.934 19.245 139.458 18.0765 136.854L18.0524 136.803C17.7099 136.054 17.3926 135.279 17.0868 134.492C15.2859 129.742 14.2959 124.585 14.2959 119.2C14.2959 114.692 14.9938 110.361 16.2745 106.285C16.5296 105.446 16.8203 104.621 17.1375 103.808C18.56 100.074 20.5005 96.5812 22.8622 93.4443C23.763 92.2375 24.739 91.0818 25.7808 89.9769C28.28 87.2716 31.135 84.8843 34.2698 82.9154C34.7774 82.5852 35.2864 82.2806 35.8052 81.9757C42.0946 78.3661 49.3788 76.2988 57.1584 76.2988C57.181 76.2988 57.204 76.2988 57.2267 76.2988C79.4997 76.324 97.8112 93.3427 99.8556 115.2C99.9812 116.572 100.046 117.968 100.046 119.391C100.032 122.045 99.7794 124.648 99.2959 127.176C99.221 127.684 99.1196 128.179 98.9912 128.674C98.5357 130.745 97.9126 132.777 97.1636 134.72C96.6942 135.901 96.1866 137.057 95.6293 138.187C95.4138 138.619 95.198 139.051 94.9681 139.47C93.0406 143.064 90.6155 146.353 87.7739 149.237C87.2663 149.757 86.7321 150.278 86.1878 150.773C85.9975 150.951 85.8057 151.129 85.6039 151.307C85.4262 151.472 85.2359 151.637 85.0456 151.789C84.2448 152.488 83.4084 153.149 82.5453 153.783C81.6431 154.457 80.7038 155.092 79.7407 155.676C77.0743 157.34 74.219 158.711 71.2111 159.765C67.5561 161.023 63.673 161.81 59.6514 162.039L59.3708 162.064H59.3582C58.6221 162.102 57.8861 162.115 57.1501 162.115H57.1508ZM29.9269 146.388C33.3916 150.055 37.6338 152.997 42.2821 155.038C46.9458 157.049 52.0222 158.121 57.1209 158.183C57.3102 158.186 57.4994 158.187 57.6882 158.187C62.602 158.187 67.5108 157.167 72.0655 155.31C76.7977 153.376 81.1405 150.488 84.7722 146.882C88.3815 143.254 91.2785 138.916 93.219 134.183C95.157 129.454 96.1851 124.34 96.1139 119.232C96.0592 114.13 94.9998 109.05 92.9982 104.378C90.9703 99.7238 88.0401 95.4716 84.3851 91.9984L84.384 91.997C83.1033 90.7027 81.7291 89.5027 80.2595 88.4065C80.167 88.3341 80.0742 88.2603 79.9803 88.1879C79.9476 88.1613 79.913 88.1346 79.8789 88.1105C77.4423 86.2359 74.7723 84.6532 71.9501 83.4054C67.2928 81.3795 62.22 80.2937 57.1209 80.2148C56.8965 80.2098 56.672 80.2083 56.4486 80.2083C51.5689 80.2083 46.6958 81.2117 42.1691 83.0421C37.4305 84.9625 33.079 87.8362 29.4355 91.4307C25.815 95.0489 22.9039 99.3771 20.9494 104.104C18.9974 108.827 17.9556 113.938 18.0103 119.046C18.0484 124.149 19.0942 129.233 21.0804 133.91C23.0943 138.572 26.0129 142.833 29.6589 146.32C27.5461 144.099 25.7121 141.632 24.1882 138.994C24.8671 140.113 25.5981 141.195 26.4028 142.239C27.658 143.954 29.0808 145.554 30.6274 147.038C30.6565 147.068 30.6856 147.097 30.7162 147.126C30.4496 146.883 30.187 146.638 29.9269 146.388V146.388ZM24.1616 138.95C24.131 138.896 24.1019 138.846 24.0717 138.792C24.0994 138.84 24.1274 138.887 24.1551 138.937L24.1616 138.95Z" fill="#F6B50C"/>
<path d="M60.8186 146.267H57.0251V144.031C57.0251 142.952 57.0114 141.859 57.0366 140.792V140.372C57.0506 140.094 56.9999 139.891 56.8603 139.789V139.776C56.7715 139.71 56.643 139.672 56.4592 139.672C56.4326 139.672 56.4059 139.672 56.3768 139.675C56.0163 139.691 55.6559 139.696 55.2879 139.696C54.813 139.696 54.327 139.689 53.8133 139.689V146.215H49.397V139.689H38.4463V132.271H41.6811V106.794H38.4715V99.4022H49.3714V92.1758H53.751V99.3007H56.9999V92.1758H61.4158V93.4459C61.4158 95.1604 61.4413 96.8878 61.4021 98.6022C61.3906 99.2499 61.619 99.4022 62.2407 99.4911C64.0556 99.7579 65.9202 99.9609 67.6595 100.533C70.6789 101.51 72.6456 103.365 73.5087 105.918C73.7497 106.616 73.9019 107.365 73.9656 108.166C74.0303 108.788 74.0303 109.448 73.9781 110.121C73.9148 110.972 73.826 111.836 73.662 112.674C73.2054 114.871 71.86 116.383 69.9296 117.424C69.4727 117.665 69.0046 117.881 68.4575 118.161C69.182 118.465 69.8281 118.707 70.4512 119.012C73.0263 120.269 74.6757 122.123 75.4258 124.536C75.729 125.476 75.8952 126.505 75.9334 127.61C75.9841 129.413 75.8445 131.204 75.1963 132.918C75.0944 133.198 74.9678 133.464 74.8419 133.731C73.9015 135.649 72.4294 137.046 70.412 137.973C67.9373 139.103 65.3485 139.484 62.6961 139.611C62.5565 139.624 62.418 139.637 62.2774 139.637C61.6187 139.662 61.3762 139.815 61.3903 140.526C61.4018 141.313 61.4018 142.113 61.3903 142.901C61.3762 143.802 61.3647 144.704 61.3647 145.606L61.3395 145.873C61.2874 146.127 61.1492 146.254 60.8179 146.267H60.8186ZM54.1395 122.121C53.7208 122.121 53.5862 122.315 53.5862 122.758C53.6103 125.616 53.6103 128.448 53.5862 131.306V131.585C53.5862 132.131 53.8021 132.284 54.245 132.284H54.3223C55.6041 132.258 56.8718 132.284 58.154 132.258C60.7046 132.208 62.4558 130.696 62.9127 128.181C63.2947 126.048 62.6346 124.257 61.264 123.19C61.1359 123.101 61.0089 123.013 60.8708 122.924L60.7423 122.848C59.9556 122.39 58.9911 122.136 57.887 122.136C57.7219 122.133 57.5582 122.131 57.3931 122.131C57.0632 122.131 56.7333 122.136 56.402 122.136C56.0466 122.136 55.689 122.14 55.3296 122.14C54.959 122.14 54.587 122.136 54.2205 122.124C54.1913 122.122 54.1647 122.121 54.1392 122.121L54.1395 122.121ZM54.1737 106.932C53.7283 106.932 53.5862 107.114 53.5862 107.569C53.6103 108.814 53.5988 110.071 53.5988 111.316C53.5988 112.573 53.6103 113.818 53.5862 115.075C53.5862 115.483 53.7057 115.685 54.1194 115.685C54.1305 115.685 54.1435 115.685 54.1561 115.685H54.3464C55.6156 115.646 56.8848 115.685 58.1424 115.583C59.589 115.482 60.6413 114.554 60.9078 113.145C61.074 112.255 61.1503 111.316 61.06 110.426C61.0093 109.753 60.819 109.156 60.5157 108.674C60.3747 108.433 60.2099 108.217 60.0207 108.039L59.8671 107.887C59.7289 107.759 59.5753 107.645 59.4116 107.543C58.8022 107.15 58.0396 106.946 57.1906 106.946C56.9571 106.944 56.7236 106.943 56.4901 106.943C56.2959 106.943 56.103 106.944 55.9088 106.944C55.712 106.945 55.5141 106.945 55.3173 106.945C54.9518 106.945 54.5864 106.943 54.2209 106.934C54.2043 106.934 54.1892 106.932 54.1737 106.932V106.932Z" fill="#F6B50C"/>
<path d="M84.3823 91.9945C88.0398 95.4695 90.9696 99.7213 92.9989 104.378C95.0006 109.05 96.06 114.13 96.1147 119.232C96.186 124.341 95.1578 129.454 93.2198 134.183C91.2793 138.916 88.3823 143.254 84.773 146.882C81.141 150.488 76.7985 153.376 72.0663 155.31C67.3367 157.24 62.2247 158.264 57.1217 158.183C52.023 158.121 46.9467 157.049 42.2829 155.038C37.6346 152.997 33.3921 150.055 29.9277 146.388C37.1979 153.386 47.1513 157.373 57.1235 157.248C62.0981 157.181 67.063 156.216 71.644 154.288C76.2275 152.375 80.4157 149.54 83.9168 146.024C87.4412 142.53 90.2836 138.345 92.201 133.759C94.1354 129.18 95.1085 124.211 95.1848 119.232C95.3243 109.254 91.361 99.2832 84.3827 91.9941L84.3823 91.9945Z" fill="#FEFEFE"/>
<path d="M24.1893 138.995C24.1828 138.985 24.1767 138.973 24.1702 138.963L24.1626 138.95C24.1716 138.964 24.1803 138.98 24.1893 138.995ZM24.0727 138.793C24 138.668 23.9266 138.546 23.8518 138.417C23.5611 137.909 23.269 137.388 23.0028 136.855L22.9762 136.804C22.4305 135.775 21.9495 134.721 21.5038 133.641C19.5633 128.879 18.5607 123.672 18.6992 118.249C18.7513 116.153 18.9798 114.109 19.3589 112.115C19.5381 111.137 19.7539 110.171 20.0075 109.231C20.972 105.624 22.4441 102.234 24.3335 99.1346C25.5012 97.2167 26.8212 95.4134 28.3195 93.7497C30.8565 90.8288 33.8513 88.3014 37.1761 86.2821C37.7093 85.9519 38.2565 85.647 38.8008 85.355C44.0797 82.4719 50.108 80.7957 56.5169 80.7067C56.7122 80.7042 56.9075 80.7031 57.1032 80.7031C65.7023 80.7031 73.4613 83.4386 79.7278 88.0095C79.781 88.0411 79.8306 88.0743 79.8799 88.111C79.9141 88.1366 79.9472 88.1632 79.9814 88.1884C80.0159 88.2165 80.0501 88.2456 80.0843 88.2762C80.1426 88.3194 80.2022 88.3637 80.2605 88.4069C81.6909 89.5374 83.0363 90.768 84.2807 92.0939C77.1145 85.1545 67.3176 81.1488 57.4605 81.1488C57.3465 81.1488 57.232 81.1488 57.118 81.1499C52.1434 81.2021 47.175 82.1522 42.5885 84.0661C37.9974 85.9649 33.8017 88.7868 30.2906 92.2934C26.7546 95.7759 23.9007 99.9518 21.9693 104.531C20.0212 109.107 19.0312 114.071 18.9413 119.049C18.8233 125.92 20.6519 132.792 24.072 138.793H24.0727Z" fill="#F6B50C"/>
<path d="M29.6594 146.32C26.0134 142.834 23.0948 138.573 21.0809 133.911C19.0947 129.234 18.049 124.149 18.0108 119.047C17.9562 113.939 18.998 108.828 20.95 104.105C22.9045 99.3778 25.8155 95.0492 29.436 91.4313C33.0799 87.8368 37.4311 84.9631 42.1697 83.0428C46.6963 81.2124 51.5695 80.209 56.4491 80.209C56.6725 80.209 56.897 80.2104 57.1215 80.2155C62.2205 80.2943 67.2933 81.3802 71.9506 83.406C74.7728 84.6542 77.4428 86.2369 79.8794 88.1112C79.8301 88.0744 79.7805 88.0413 79.7273 88.0096C73.4608 83.4388 65.7018 80.7033 57.1027 80.7033C56.907 80.7033 56.7117 80.7044 56.5164 80.7069C50.1075 80.7958 44.0795 82.4725 38.8003 85.3552C38.256 85.6472 37.7088 85.9521 37.1756 86.2823C33.8508 88.3016 30.856 90.829 28.319 93.7499C26.8203 95.4139 25.5004 97.2173 24.333 99.1348C22.4433 102.234 20.9712 105.625 20.007 109.232C19.7534 110.172 19.5376 111.137 19.3584 112.115C18.9793 114.109 18.7508 116.153 18.6987 118.249C18.5602 123.672 19.5628 128.879 21.5033 133.642C21.949 134.721 22.43 135.776 22.9757 136.804L23.0023 136.855C23.2685 137.388 23.5606 137.909 23.8513 138.417C23.9261 138.547 23.9995 138.669 24.0722 138.793C24.1024 138.847 24.1315 138.897 24.1621 138.951L24.1697 138.963C24.1762 138.974 24.1823 138.985 24.1888 138.995C25.713 141.633 27.547 144.1 29.6594 146.321V146.32ZM80.2604 88.4067C80.2021 88.3635 80.1424 88.3193 80.0841 88.2761C80.0499 88.2455 80.0158 88.2163 79.9812 88.1882C80.0751 88.2606 80.168 88.3344 80.2604 88.4067Z" fill="#DDA316"/>
<path d="M38.4672 106.796C38.428 106.18 38.3999 105.563 38.3758 104.947C38.3532 104.331 38.3161 103.713 38.3035 103.097L38.2096 99.3986L38.2031 99.1458L38.4672 99.1408C42.1007 99.08 45.7337 99.0785 49.3672 99.1433L49.1122 99.3986L49.2061 95.7879L49.2784 93.982C49.3014 93.3797 49.3291 92.7777 49.3672 92.1758C49.4053 92.7777 49.4334 93.3797 49.4561 93.982L49.5284 95.7879L49.6237 99.3986L49.6299 99.6502L49.3672 99.6542C45.7337 99.7186 42.1007 99.7176 38.4672 99.6567L38.7248 99.3986L38.6298 103.097C38.6168 103.713 38.5802 104.331 38.5575 104.947C38.5334 105.563 38.5053 106.18 38.4672 106.796V106.796Z" fill="#FEFEFE"/>
<path d="M38.4407 139.692C38.385 138.455 38.3558 137.217 38.3162 135.98C38.272 134.741 38.2645 133.503 38.2364 132.266L38.2324 132.065L38.4407 132.063L41.677 132.008L41.418 132.266L41.3799 125.899C41.3662 123.776 41.3979 121.654 41.4054 119.531C41.4079 117.409 41.4522 115.287 41.4917 113.165C41.5248 111.041 41.5946 108.919 41.677 106.797C41.7583 108.919 41.8292 111.041 41.8609 113.165C41.9015 115.287 41.9461 117.409 41.9486 119.531C41.9547 121.654 41.9878 123.776 41.9738 125.899L41.936 132.266L41.9332 132.529L41.677 132.525L38.4407 132.469L38.6425 132.266C38.6159 133.503 38.6084 134.741 38.5637 135.98C38.5245 137.217 38.4965 138.455 38.4407 139.692V139.692Z" fill="#FEFEFE"/>
<path d="M54.3262 132.28C55.0291 132.211 55.7335 132.182 56.4379 132.131L58.5485 132.046C59.8645 131.964 61.1196 131.213 61.8697 130.137C62.6374 129.057 62.8622 127.653 62.687 126.31C62.6043 125.638 62.3888 124.982 62.046 124.389C61.7251 123.782 61.2617 123.247 60.7034 122.816C61.9701 123.469 62.8673 124.795 63.1475 126.232C63.4508 127.652 63.2328 129.245 62.3672 130.486C61.4966 131.703 60.0649 132.535 58.5511 132.51C57.1398 132.465 55.7349 132.404 54.3265 132.279L54.3262 132.28Z" fill="#FEFEFE"/>
<path d="M54.3262 115.684C55.477 115.56 56.6663 115.495 57.7884 115.434C58.8468 115.29 59.7857 114.559 60.2933 113.623C60.8254 112.682 60.9139 111.523 60.7552 110.425C60.5779 109.33 60.1005 108.249 59.2997 107.4C60.2566 108.078 60.9344 109.158 61.2096 110.335C61.4801 111.499 61.4319 112.804 60.8254 113.914C60.2275 115.004 59.1029 115.842 57.8276 115.91C56.6282 115.896 55.495 115.797 54.3262 115.684V115.684Z" fill="#FEFEFE"/>
<path d="M49.3951 139.691C49.6336 140.779 49.6883 141.864 49.6983 142.952C49.6893 144.038 49.635 145.125 49.3951 146.211C49.154 145.125 49.1004 144.038 49.0918 142.952C49.1019 141.864 49.1551 140.779 49.3951 139.691Z" fill="#FEFEFE"/>
<path d="M56.8558 139.781C57.0954 140.861 57.149 141.942 57.1591 143.021C57.1501 144.101 57.0969 145.182 56.8558 146.261C56.6145 145.182 56.5612 144.101 56.5522 143.021C56.5627 141.942 56.6159 140.861 56.8558 139.781Z" fill="#FEFEFE"/>
<path d="M1464.34 523.398C1464.26 548.793 1443.59 569.43 1418.15 569.412C1392.63 569.388 1371.99 548.727 1372 523.203C1372.01 497.619 1392.68 476.969 1418.23 477C1443.73 477.03 1464.41 497.739 1464.34 523.398Z" fill="#FCC32A"/>
<path d="M1418.15 566.115C1411.3 566.102 1404.83 564.502 1399.09 561.645C1397.39 560.793 1395.77 559.854 1394.21 558.787C1391.23 556.793 1388.53 554.418 1386.16 551.751C1385.14 550.633 1384.2 549.452 1383.32 548.22C1381.68 545.934 1380.25 543.458 1379.08 540.854L1379.05 540.803C1378.71 540.054 1378.39 539.279 1378.09 538.492C1376.29 533.742 1375.3 528.585 1375.3 523.2C1375.3 518.692 1375.99 514.361 1377.27 510.285C1377.53 509.446 1377.82 508.621 1378.14 507.808C1379.56 504.074 1381.5 500.581 1383.86 497.444C1384.76 496.237 1385.74 495.082 1386.78 493.977C1389.28 491.272 1392.14 488.884 1395.27 486.915C1395.78 486.585 1396.29 486.281 1396.81 485.976C1403.09 482.366 1410.38 480.299 1418.16 480.299C1418.18 480.299 1418.2 480.299 1418.23 480.299C1440.5 480.324 1458.81 497.343 1460.86 519.2C1460.98 520.572 1461.05 521.968 1461.05 523.391C1461.03 526.045 1460.78 528.648 1460.3 531.176C1460.22 531.684 1460.12 532.179 1459.99 532.674C1459.54 534.745 1458.91 536.777 1458.16 538.72C1457.69 539.901 1457.19 541.057 1456.63 542.187C1456.41 542.619 1456.2 543.051 1455.97 543.47C1454.04 547.064 1451.62 550.353 1448.77 553.237C1448.27 553.757 1447.73 554.278 1447.19 554.773C1447 554.951 1446.81 555.129 1446.6 555.307C1446.43 555.472 1446.24 555.637 1446.05 555.789C1445.25 556.488 1444.41 557.149 1443.55 557.783C1442.64 558.457 1441.7 559.092 1440.74 559.676C1438.07 561.34 1435.22 562.711 1432.21 563.765C1428.56 565.023 1424.67 565.81 1420.65 566.039L1420.37 566.064H1420.36C1419.62 566.102 1418.89 566.115 1418.15 566.115H1418.15ZM1390.93 550.388C1394.39 554.055 1398.63 556.997 1403.28 559.038C1407.95 561.049 1413.02 562.121 1418.12 562.183C1418.31 562.186 1418.5 562.187 1418.69 562.187C1423.6 562.187 1428.51 561.167 1433.07 559.31C1437.8 557.376 1442.14 554.488 1445.77 550.882C1449.38 547.254 1452.28 542.916 1454.22 538.183C1456.16 533.454 1457.19 528.34 1457.11 523.232C1457.06 518.13 1456 513.05 1454 508.378C1451.97 503.724 1449.04 499.472 1445.39 495.998L1445.38 495.997C1444.1 494.703 1442.73 493.503 1441.26 492.406C1441.17 492.334 1441.07 492.26 1440.98 492.188C1440.95 492.161 1440.91 492.135 1440.88 492.111C1438.44 490.236 1435.77 488.653 1432.95 487.405C1428.29 485.379 1423.22 484.294 1418.12 484.215C1417.9 484.21 1417.67 484.208 1417.45 484.208C1412.57 484.208 1407.7 485.212 1403.17 487.042C1398.43 488.962 1394.08 491.836 1390.44 495.431C1386.82 499.049 1383.9 503.377 1381.95 508.104C1380 512.827 1378.96 517.938 1379.01 523.046C1379.05 528.149 1380.09 533.233 1382.08 537.91C1384.09 542.572 1387.01 546.833 1390.66 550.32C1388.55 548.099 1386.71 545.632 1385.19 542.994C1385.87 544.113 1386.6 545.195 1387.4 546.239C1388.66 547.954 1390.08 549.554 1391.63 551.038C1391.66 551.068 1391.69 551.097 1391.72 551.126C1391.45 550.883 1391.19 550.638 1390.93 550.388V550.388ZM1385.16 542.95C1385.13 542.896 1385.1 542.846 1385.07 542.792C1385.1 542.84 1385.13 542.887 1385.16 542.937L1385.16 542.95Z" fill="#F6B50C"/>
<path d="M1421.82 550.267H1418.03V548.031C1418.03 546.952 1418.01 545.859 1418.04 544.792V544.372C1418.05 544.094 1418 543.891 1417.86 543.789V543.776C1417.77 543.71 1417.64 543.672 1417.46 543.672C1417.43 543.672 1417.41 543.672 1417.38 543.675C1417.02 543.691 1416.66 543.696 1416.29 543.696C1415.81 543.696 1415.33 543.689 1414.81 543.689V550.215H1410.4V543.689H1399.45V536.271H1402.68V510.794H1399.47V503.402H1410.37V496.176H1414.75V503.301H1418V496.176H1422.42V497.446C1422.42 499.16 1422.44 500.888 1422.4 502.602C1422.39 503.25 1422.62 503.402 1423.24 503.491C1425.06 503.758 1426.92 503.961 1428.66 504.533C1431.68 505.51 1433.65 507.365 1434.51 509.918C1434.75 510.616 1434.9 511.365 1434.97 512.166C1435.03 512.788 1435.03 513.448 1434.98 514.121C1434.92 514.972 1434.83 515.836 1434.66 516.674C1434.21 518.871 1432.86 520.383 1430.93 521.424C1430.47 521.665 1430 521.881 1429.46 522.161C1430.18 522.465 1430.83 522.707 1431.45 523.012C1434.03 524.269 1435.68 526.123 1436.43 528.536C1436.73 529.476 1436.9 530.505 1436.93 531.61C1436.98 533.413 1436.84 535.204 1436.2 536.918C1436.09 537.198 1435.97 537.464 1435.84 537.731C1434.9 539.649 1433.43 541.046 1431.41 541.973C1428.94 543.103 1426.35 543.484 1423.7 543.611C1423.56 543.624 1423.42 543.637 1423.28 543.637C1422.62 543.662 1422.38 543.815 1422.39 544.526C1422.4 545.313 1422.4 546.113 1422.39 546.901C1422.38 547.802 1422.36 548.704 1422.36 549.606L1422.34 549.873C1422.29 550.127 1422.15 550.254 1421.82 550.267H1421.82ZM1415.14 526.121C1414.72 526.121 1414.59 526.315 1414.59 526.758C1414.61 529.616 1414.61 532.448 1414.59 535.306V535.585C1414.59 536.131 1414.8 536.284 1415.25 536.284H1415.32C1416.6 536.258 1417.87 536.284 1419.15 536.258C1421.7 536.208 1423.46 534.696 1423.91 532.181C1424.29 530.048 1423.63 528.257 1422.26 527.19C1422.14 527.101 1422.01 527.013 1421.87 526.924L1421.74 526.848C1420.96 526.39 1419.99 526.136 1418.89 526.136C1418.72 526.133 1418.56 526.131 1418.39 526.131C1418.06 526.131 1417.73 526.136 1417.4 526.136C1417.05 526.136 1416.69 526.14 1416.33 526.14C1415.96 526.14 1415.59 526.136 1415.22 526.124C1415.19 526.122 1415.16 526.121 1415.14 526.121L1415.14 526.121ZM1415.17 510.932C1414.73 510.932 1414.59 511.114 1414.59 511.569C1414.61 512.814 1414.6 514.071 1414.6 515.316C1414.6 516.573 1414.61 517.818 1414.59 519.075C1414.59 519.483 1414.71 519.685 1415.12 519.685C1415.13 519.685 1415.14 519.685 1415.16 519.685H1415.35C1416.62 519.646 1417.89 519.685 1419.14 519.583C1420.59 519.482 1421.64 518.554 1421.91 517.145C1422.07 516.255 1422.15 515.316 1422.06 514.426C1422.01 513.753 1421.82 513.156 1421.52 512.674C1421.37 512.433 1421.21 512.217 1421.02 512.039L1420.87 511.887C1420.73 511.759 1420.58 511.645 1420.41 511.543C1419.8 511.15 1419.04 510.946 1418.19 510.946C1417.96 510.944 1417.72 510.943 1417.49 510.943C1417.3 510.943 1417.1 510.944 1416.91 510.944C1416.71 510.945 1416.51 510.945 1416.32 510.945C1415.95 510.945 1415.59 510.943 1415.22 510.934C1415.2 510.934 1415.19 510.932 1415.17 510.932V510.932Z" fill="#F6B50C"/>
<path d="M1445.38 495.995C1449.04 499.469 1451.97 503.721 1454 508.378C1456 513.05 1457.06 518.13 1457.11 523.232C1457.19 528.341 1456.16 533.454 1454.22 538.183C1452.28 542.916 1449.38 547.254 1445.77 550.882C1442.14 554.488 1437.8 557.376 1433.07 559.31C1428.34 561.24 1423.22 562.264 1418.12 562.183C1413.02 562.121 1407.95 561.049 1403.28 559.038C1398.63 556.997 1394.39 554.055 1390.93 550.388C1398.2 557.386 1408.15 561.373 1418.12 561.248C1423.1 561.181 1428.06 560.216 1432.64 558.288C1437.23 556.375 1441.42 553.54 1444.92 550.024C1448.44 546.53 1451.28 542.345 1453.2 537.759C1455.14 533.18 1456.11 528.211 1456.19 523.232C1456.32 513.254 1452.36 503.283 1445.38 495.994L1445.38 495.995Z" fill="#FEFEFE"/>
<path d="M1385.19 542.995C1385.18 542.985 1385.18 542.973 1385.17 542.963L1385.16 542.95C1385.17 542.964 1385.18 542.98 1385.19 542.995ZM1385.07 542.793C1385 542.668 1384.93 542.546 1384.85 542.417C1384.56 541.909 1384.27 541.388 1384 540.855L1383.98 540.804C1383.43 539.775 1382.95 538.721 1382.5 537.641C1380.56 532.879 1379.56 527.672 1379.7 522.249C1379.75 520.153 1379.98 518.109 1380.36 516.115C1380.54 515.137 1380.75 514.171 1381.01 513.231C1381.97 509.624 1383.44 506.234 1385.33 503.135C1386.5 501.217 1387.82 499.413 1389.32 497.75C1391.86 494.829 1394.85 492.301 1398.18 490.282C1398.71 489.952 1399.26 489.647 1399.8 489.355C1405.08 486.472 1411.11 484.796 1417.52 484.707C1417.71 484.704 1417.91 484.703 1418.1 484.703C1426.7 484.703 1434.46 487.439 1440.73 492.009C1440.78 492.041 1440.83 492.074 1440.88 492.111C1440.91 492.137 1440.95 492.163 1440.98 492.188C1441.02 492.216 1441.05 492.246 1441.08 492.276C1441.14 492.319 1441.2 492.364 1441.26 492.407C1442.69 493.537 1444.04 494.768 1445.28 496.094C1438.11 489.154 1428.32 485.149 1418.46 485.149C1418.35 485.149 1418.23 485.149 1418.12 485.15C1413.14 485.202 1408.17 486.152 1403.59 488.066C1399 489.965 1394.8 492.787 1391.29 496.293C1387.75 499.776 1384.9 503.952 1382.97 508.531C1381.02 513.107 1380.03 518.071 1379.94 523.049C1379.82 529.92 1381.65 536.792 1385.07 542.793H1385.07Z" fill="#F6B50C"/>
<path d="M1390.66 550.32C1387.01 546.834 1384.1 542.573 1382.08 537.911C1380.09 533.234 1379.05 528.149 1379.01 523.047C1378.96 517.939 1380 512.828 1381.95 508.105C1383.9 503.378 1386.82 499.049 1390.44 495.431C1394.08 491.837 1398.43 488.963 1403.17 487.043C1407.7 485.212 1412.57 484.209 1417.45 484.209C1417.67 484.209 1417.9 484.21 1418.12 484.215C1423.22 484.294 1428.29 485.38 1432.95 487.406C1435.77 488.654 1438.44 490.237 1440.88 492.111C1440.83 492.074 1440.78 492.041 1440.73 492.01C1434.46 487.439 1426.7 484.703 1418.1 484.703C1417.91 484.703 1417.71 484.704 1417.52 484.707C1411.11 484.796 1405.08 486.472 1399.8 489.355C1399.26 489.647 1398.71 489.952 1398.18 490.282C1394.85 492.302 1391.86 494.829 1389.32 497.75C1387.82 499.414 1386.5 501.217 1385.33 503.135C1383.44 506.234 1381.97 509.625 1381.01 513.232C1380.75 514.172 1380.54 515.137 1380.36 516.115C1379.98 518.109 1379.75 520.153 1379.7 522.249C1379.56 527.672 1380.56 532.879 1382.5 537.642C1382.95 538.721 1383.43 539.776 1383.98 540.804L1384 540.855C1384.27 541.388 1384.56 541.909 1384.85 542.417C1384.93 542.547 1385 542.669 1385.07 542.793C1385.1 542.847 1385.13 542.897 1385.16 542.951L1385.17 542.963C1385.18 542.974 1385.18 542.985 1385.19 542.995C1386.71 545.633 1388.55 548.1 1390.66 550.321V550.32ZM1441.26 492.407C1441.2 492.364 1441.14 492.319 1441.08 492.276C1441.05 492.245 1441.02 492.216 1440.98 492.188C1441.08 492.261 1441.17 492.334 1441.26 492.407Z" fill="#DDA316"/>
<path d="M1399.47 510.796C1399.43 510.18 1399.4 509.563 1399.38 508.947C1399.35 508.331 1399.32 507.713 1399.3 507.097L1399.21 503.399L1399.2 503.146L1399.47 503.141C1403.1 503.08 1406.73 503.079 1410.37 503.143L1410.11 503.399L1410.21 499.788L1410.28 497.982C1410.3 497.38 1410.33 496.778 1410.37 496.176C1410.41 496.778 1410.43 497.38 1410.46 497.982L1410.53 499.788L1410.62 503.399L1410.63 503.65L1410.37 503.654C1406.73 503.719 1403.1 503.718 1399.47 503.657L1399.72 503.399L1399.63 507.097C1399.62 507.713 1399.58 508.331 1399.56 508.947C1399.53 509.563 1399.51 510.18 1399.47 510.796V510.796Z" fill="#FEFEFE"/>
<path d="M1399.44 543.692C1399.38 542.455 1399.36 541.217 1399.32 539.98C1399.27 538.741 1399.26 537.503 1399.24 536.266L1399.23 536.065L1399.44 536.063L1402.68 536.008L1402.42 536.266L1402.38 529.899C1402.37 527.776 1402.4 525.654 1402.41 523.531C1402.41 521.409 1402.45 519.287 1402.49 517.165C1402.52 515.041 1402.59 512.919 1402.68 510.797C1402.76 512.919 1402.83 515.041 1402.86 517.165C1402.9 519.287 1402.95 521.409 1402.95 523.531C1402.95 525.654 1402.99 527.776 1402.97 529.899L1402.94 536.266L1402.93 536.529L1402.68 536.525L1399.44 536.469L1399.64 536.266C1399.62 537.503 1399.61 538.741 1399.56 539.98C1399.52 541.217 1399.5 542.455 1399.44 543.692V543.692Z" fill="#FEFEFE"/>
<path d="M1415.33 536.28C1416.03 536.211 1416.73 536.182 1417.44 536.131L1419.55 536.046C1420.86 535.964 1422.12 535.213 1422.87 534.137C1423.64 533.057 1423.86 531.653 1423.69 530.31C1423.6 529.638 1423.39 528.982 1423.05 528.389C1422.73 527.782 1422.26 527.247 1421.7 526.816C1422.97 527.469 1423.87 528.795 1424.15 530.232C1424.45 531.652 1424.23 533.245 1423.37 534.486C1422.5 535.703 1421.07 536.535 1419.55 536.51C1418.14 536.465 1416.74 536.404 1415.33 536.279L1415.33 536.28Z" fill="#FEFEFE"/>
<path d="M1415.33 519.684C1416.48 519.56 1417.67 519.495 1418.79 519.434C1419.85 519.29 1420.79 518.559 1421.29 517.623C1421.83 516.682 1421.91 515.523 1421.76 514.425C1421.58 513.33 1421.1 512.249 1420.3 511.4C1421.26 512.078 1421.93 513.158 1422.21 514.335C1422.48 515.499 1422.43 516.804 1421.83 517.914C1421.23 519.004 1420.1 519.842 1418.83 519.91C1417.63 519.896 1416.5 519.797 1415.33 519.684V519.684Z" fill="#FEFEFE"/>
<defs>
<filter id="filter0_f_4_407" x="-278.188" y="-235.348" width="1517.67" height="1486.65" filterUnits="userSpaceOnUse" color-interpolation-filters="sRGB">
<feFlood flood-opacity="0" result="BackgroundImageFix"/>
<feBlend mode="normal" in="SourceGraphic" in2="BackgroundImageFix" result="shape"/>
<feGaussianBlur stdDeviation="200" result="effect1_foregroundBlur_4_407"/>
</filter>
<filter id="filter1_f_4_407" x="848.003" y="-362.998" width="1358.03" height="1335.58" filterUnits="userSpaceOnUse" color-interpolation-filters="sRGB">
<feFlood flood-opacity="0" result="BackgroundImageFix"/>
<feBlend mode="normal" in="SourceGraphic" in2="BackgroundImageFix" result="shape"/>
<feGaussianBlur stdDeviation="200" result="effect1_foregroundBlur_4_407"/>
</filter>
<filter id="filter2_f_4_407" x="-718.625" y="58.6797" width="1357.91" height="1333.8" filterUnits="userSpaceOnUse" color-interpolation-filters="sRGB">
<feFlood flood-opacity="0" result="BackgroundImageFix"/>
<feBlend mode="normal" in="SourceGraphic" in2="BackgroundImageFix" result="shape"/>
<feGaussianBlur stdDeviation="200" result="effect1_foregroundBlur_4_407"/>
</filter>
<filter id="filter3_f_4_407" x="162.989" y="-237.457" width="1577.44" height="1543.85" filterUnits="userSpaceOnUse" color-interpolation-filters="sRGB">
<feFlood flood-opacity="0" result="BackgroundImageFix"/>
<feBlend mode="normal" in="SourceGraphic" in2="BackgroundImageFix" result="shape"/>
<feGaussianBlur stdDeviation="200" result="effect1_foregroundBlur_4_407"/>
</filter>
</defs>
</svg>
