<?xml version="1.0" encoding="UTF-8"?> <svg xmlns="http://www.w3.org/2000/svg" width="751" height="187" viewBox="0 0 751 187" fill="none"><path d="M118.475 135.395H67.7021V186.168H118.475V135.395Z" fill="#7CE8FE"></path><path d="M153.54 67.6982H67.7021V118.471H153.54H169.248V67.6982H153.54Z" fill="#3EC7E3"></path><path d="M220.021 0H67.7021V50.7729H220.021V0Z" fill="#00A2C7"></path><path d="M50.7728 67.6983H0V118.471H50.7728V67.6983Z" fill="#3EC7E3"></path><path d="M270.778 186.18H310.141V109.272H385.867V76.8174H310.141V32.4542H394.049V0H270.778V186.18Z" fill="black"></path><path d="M413.435 32.4542H470.435V186.18H509.343V32.4542H566.343V0H413.435V32.4542Z" fill="black"></path><path d="M628.433 0H583.797L640.979 93.09L582.706 186.18H627.797L665.978 122.635H667.433L705.614 186.18H750.887L692.796 93.09L749.614 0H705.16L667.433 63.4539H665.978L628.433 0Z" fill="black"></path></svg> 