<?xml version="1.0" encoding="UTF-8"?> <svg xmlns="http://www.w3.org/2000/svg" width="90" height="26" viewBox="0 0 90 26" fill="none"><path d="M12.4248 8.44995C12.0992 12.1282 8.42528 15.4562 7.18332 17.5581C5.99238 19.5736 5.57753 21.4786 6.4487 25.158C6.49495 25.3533 6.29944 25.524 6.11704 25.4403C4.56064 24.7259 0.599611 22.583 0.599609 17.4743C0.599607 10.2682 8.57076 10.0108 8.19615 0.25777C8.18862 0.0617187 8.40309 -0.0715263 8.56352 0.0414217C11.1713 1.87748 12.7352 4.94398 12.4248 8.44995Z" fill="#0CA28B"></path><path d="M7.22542 25.7316C7.13191 25.703 7.0667 25.6178 7.063 25.5201C6.97228 23.1296 8.25847 21.5674 9.70065 20.4084C12.9018 17.8358 14.8756 14.3616 14.0944 10.3418C14.0478 10.102 14.3288 9.94373 14.4858 10.1309C15.2388 11.0286 16.0059 12.2452 16.4304 13.1321C18.4779 17.5306 17.3852 22.5713 12.4857 25.1149C10.9518 25.8765 9.13035 26.3136 7.22542 25.7316Z" fill="#3BBEAA"></path><path fill-rule="evenodd" clip-rule="evenodd" d="M33.3752 6.53809V14.1333H26.0839V7.51533C26.0839 6.97552 25.6582 6.53809 25.1328 6.53809H22.6719V24.6379C22.6719 25.1775 23.0979 25.6152 23.623 25.6152H26.0839V17.1969H33.3752V24.6379C33.3752 25.1775 33.8009 25.6152 34.3263 25.6152H36.7872V7.51533C36.7872 6.97552 36.3612 6.53809 35.8358 6.53809H33.3752Z" fill="#000"></path><path fill-rule="evenodd" clip-rule="evenodd" d="M47.9791 11.0296V20.08C47.9791 20.9024 47.5628 21.682 46.8568 22.0932C44.8852 23.2416 42.8454 21.8073 42.8454 19.9158V12.0077C42.8454 11.4672 42.411 11.0293 41.8749 11.0293H39.3538H39.3535V20.2387C39.3535 23.2016 41.7585 25.6258 44.6975 25.6258H46.1266C49.0658 25.6258 51.4705 23.2016 51.4705 20.2385V12.0077C51.4705 11.4672 51.0361 11.0293 50.5003 11.0293H47.9791V11.0296Z" fill="#000"></path><path fill-rule="evenodd" clip-rule="evenodd" d="M86.7176 25.6147H89.1856V12.7787C89.1856 12.2374 88.7583 11.7988 88.2317 11.7988H85.7637V24.6346C85.7637 25.1759 86.1907 25.6147 86.7176 25.6147Z" fill="#000"></path><path fill-rule="evenodd" clip-rule="evenodd" d="M87.4954 10.3449C88.5465 10.3449 89.3987 9.49282 89.3987 8.44152C89.3987 7.39021 88.5465 6.53809 87.4954 6.53809C86.444 6.53809 85.5918 7.39021 85.5918 8.44152C85.5918 9.49282 86.444 10.3449 87.4954 10.3449Z" fill="#000"></path><path fill-rule="evenodd" clip-rule="evenodd" d="M63.7281 19.563C63.7281 21.3019 62.3262 22.4595 60.6127 22.4595C58.8991 22.4595 57.4972 21.3019 57.4972 19.563V17.0815C57.4972 15.3426 58.8991 14.1849 60.6127 14.1849C62.3262 14.1849 63.7281 15.3426 63.7281 17.0815V19.563ZM60.6127 11.0293C56.9899 11.0293 54.0254 13.6593 54.0254 17.3357V19.3242C54.0254 23.0008 56.9899 25.6151 60.6127 25.6151C64.2357 25.6151 67.1997 23.0008 67.1997 19.3242V17.3357C67.1997 13.6593 64.2357 11.0293 60.6127 11.0293Z" fill="#000"></path><path fill-rule="evenodd" clip-rule="evenodd" d="M79.5294 19.5671C79.5294 21.3048 78.1182 22.4617 76.3937 22.4617C74.6691 22.4617 73.2581 21.3048 73.2581 19.5671V17.0872C73.2581 15.3495 74.6691 14.1927 76.3937 14.1927C78.1182 14.1927 79.5294 15.3495 79.5294 17.0872V19.5671ZM76.3937 11.0392C75.254 11.0392 74.1793 11.2958 73.24 11.761V7.51423C73.24 6.97515 72.806 6.53809 72.2709 6.53809H69.7637V19.3284C69.7637 23.0026 72.7472 25.6152 76.3937 25.6152C80.04 25.6152 83.0235 23.0026 83.0235 19.3284V17.3413C83.0235 13.6674 80.04 11.0392 76.3937 11.0392Z" fill="#000"></path></svg> 