<?xml version="1.0" encoding="UTF-8"?> <svg xmlns="http://www.w3.org/2000/svg" xmlns:svg="http://www.w3.org/2000/svg" fill="none" viewBox="0 0 1133.8583 181.2983"><path fill="#5e3ee2" d="M108.8671 4.1262C48.7393 4.1262 0 52.8909 0 113.044V159.72c0 8.5858 6.9555 15.5417 15.5415 15.5417 8.5861 0 15.5925-6.956 15.5925-15.5417V113.044c0-8.6114 6.93-15.5667 15.5415-15.5667 8.5861 0 15.5414 6.9553 15.5414 15.5667V159.72c0 8.5858 6.956 15.5417 15.5417 15.5417 8.6115 0 15.5668-6.956 15.5668-15.5417V113.044c0-8.6114 6.956-15.5667 15.5417-15.5667 8.6115 0 15.5924 6.9553 15.5924 15.5667V159.72c0 8.5858 6.956 15.5417 15.5417 15.5417 8.5858 0 15.5418-6.956 15.5418-15.5417V113.044c0-8.6114 6.9552-15.5667 15.5924-15.5667 8.5858 0 15.541 6.9553 15.541 15.5667V159.72c0 8.5858 6.956 15.5417 15.5675 15.5417 8.5858 0 15.5417-6.956 15.5417-15.5417V113.044c0-60.153-48.7647-108.9178-108.9185-108.9178zm133.3638.0166h27.6317v72.663L343.6 4.1427h36.7406l-65.7541 63.6053 69.4387 107.459h-36.7407L293.478 88.1655l-23.6154 22.8478v64.2197h-27.6317zm156.8129.002h27.3255V33.696c2.2258-5.7567 7.7266-12.7415 16.451-21.0056C451.5456 4.4519 461.6262.307 473.0116.307c.5372 0 1.4325.0512 2.7122.1535 1.2791.1024 3.4536.307 6.5496.6397V31.47c-1.7143-.3326-3.2751-.5373-4.7076-.6396-1.4331-.1024-3.019-.1535-4.7076-.1535-14.4813 0-25.6113 4.6565-33.3892 13.9696-7.7778 9.313-11.6671 20.0336-11.6671 32.1866v98.4015h-28.758V4.1448Zm190.3304 67.5457c6.6008-.8446 11.0273-3.6075 13.253-8.29 1.2791-2.5582 1.919-6.2426 1.919-11.0527 0-9.8248-3.4798-16.9631-10.4388-21.415-6.9596-4.4263-16.9119-6.6522-29.8838-6.6522-14.9929 0-25.6113 4.068-31.8797 12.2043-3.5048 4.503-5.7819 11.1808-6.8569 20.059h-26.839c.5371-21.1337 7.3683-35.8453 20.4942-44.135C532.2926 4.145 547.5165 0 564.8636 0c20.11 0 36.4333 3.8378 48.97 11.4879 12.461 7.6756 18.6762 19.5984 18.6762 35.794v98.5549c0 2.994.6173 5.373 1.8457 7.19 1.1978 1.8162 3.7829 2.7115 7.7491 2.7115 1.2834 0 2.7134-.0764 4.3268-.2297 1.5829-.154 3.3002-.4095 5.1152-.7169v21.2362c-4.4796 1.2791-7.8775 2.0724-10.2059 2.4048-2.359.3074-5.5307.4865-9.5948.4865-9.9064 0-17.0933-3.5055-21.5705-10.5414-2.3284-3.7353-3.9913-9.0063-4.938-15.8119-5.8595 7.6759-14.2516 14.328-25.2275 19.9566-10.976 5.6548-23.0525 8.469-36.2548 8.469-15.8626 0-28.8345-4.8102-38.8894-14.43-10.0556-9.6205-15.0956-21.6714-15.0956-36.127 0-15.837 4.9636-28.1183 14.8652-36.8428 9.9016-8.7245 22.8991-14.0976 38.9664-16.1192zM528.839 149.368c6.0636 4.7845 13.253 7.1637 21.568 7.1637 10.1064 0 19.9059-2.3278 29.398-7.0103 15.9652-7.7522 23.9478-20.468 23.9478-38.1224v-23.129c-3.5048 2.2515-8.034 4.119-13.5604 5.6029-5.5265 1.4844-10.9503 2.5588-16.2463 3.1987l-17.3727 2.2257c-10.413 1.3818-18.2423 3.5562-23.4877 6.5245-8.9035 4.9886-13.33 12.9719-13.33 23.8965-.0257 8.3407 3.0196 14.8651 9.0833 19.6497zM697.8826 4.1449v72.6626l73.7392-72.6627h36.7107l-65.7517 63.6058 69.4369 107.4584h-36.7413l-53.8041-87.0417-23.6142 22.8478v64.2196h-27.6354V4.1448ZM929.3 8.8525c11.3366 5.7055 19.9596 13.0741 25.8693 22.1314 5.708 8.6223 9.5153 18.6774 11.4343 30.1908 1.6928 7.8805 2.5362 20.443 2.5362 37.6873H844.7193c.5378 17.3983 4.6019 31.3676 12.2044 41.8833 7.5963 10.5158 19.3912 15.7862 35.3295 15.7862 14.8933 0 26.792-4.9636 35.6657-14.916 4.9685-5.7825 8.4947-12.4603 10.5665-20.0591h28.277c-.7455 6.294-3.2267 13.2787-7.4252 21.0058-4.1924 7.7266-8.898 14.0206-14.0683 18.933-8.672 8.5203-19.3973 14.2766-32.1883 17.2448-6.8569 1.7143-14.6366 2.5582-23.3086 2.5582-21.1574 0-39.0941-7.7522-53.804-23.2315-14.71-15.5045-22.0558-37.1752-22.0558-65.0893 0-27.479 7.3947-49.7893 22.233-66.9315C850.959 8.9037 870.3257.3326 894.2515.3326c12.021-.0256 23.718 2.84 35.0484 8.52zM939.5855 76.04c-1.149-12.4604-3.8624-22.4129-8.0853-29.8583-7.798-13.8417-20.8518-20.7753-39.1185-20.7753-13.0966 0-24.0725 4.7589-32.9279 14.3022-8.8797 9.5434-13.561 21.6452-14.0988 36.3314zm82.1301-71.8952v24.2806c8.0853-10.004 16.6595-17.1934 25.7164-21.5685 9.057-4.3751 19.1101-6.5499 30.19-6.5499 24.2803 0 40.683 8.4688 49.2022 25.4064 4.6813 9.2619 7.0342 22.5152 7.0342 39.7851v109.7362h-29.2427V67.4175c0-10.4387-1.534-18.8563-4.6324-25.2271-5.1152-10.6436-14.3799-15.9653-27.7882-15.9653-6.8019 0-12.406.6908-16.7817 2.0724-7.8836 2.3538-14.7894 7.036-20.7785 14.0464-4.779 5.6544-7.9019 11.4623-9.3381 17.5004-1.43 6.038-2.1451 14.6092-2.1451 25.7904v89.6h-28.7598V4.1448Z"></path></svg> 