<?xml version="1.0" encoding="UTF-8"?> <svg xmlns="http://www.w3.org/2000/svg" id="Layer_1" data-name="Layer 1" viewBox="0 0 725.47 166.46"><defs><style>.cls-1{fill:#04111d;}.cls-2{fill:#2081e2;}.cls-3{fill:#fff;}</style></defs><title>opensealogo-freelogovectors.net</title><path class="cls-1" d="M261.63,414.09a42.92,42.92,0,0,1-20.58-5,37.83,37.83,0,0,1-20.25-34.25,38.14,38.14,0,0,1,5.43-20.19,39,39,0,0,1,14.82-14,42.92,42.92,0,0,1,20.58-5,42.31,42.31,0,0,1,20.48,5,37.08,37.08,0,0,1,14.7,14,38.14,38.14,0,0,1,5.43,20.19,38.7,38.7,0,0,1-5.43,20.29,38.09,38.09,0,0,1-14.7,14A42.31,42.31,0,0,1,261.63,414.09Zm0-17q9.51,0,15.16-6.11t5.77-16.14q0-10.15-5.77-16.15t-15.16-6.11q-9.62,0-15.38,6t-5.65,16.26q0,10.14,5.65,16.25T261.63,397.07Z" transform="translate(-12.26 -291.77)"></path><path class="cls-1" d="M332.34,361.07a20.73,20.73,0,0,1,7.8-6.87,24.65,24.65,0,0,1,11.65-2.62,26.8,26.8,0,0,1,14.14,3.82,26.37,26.37,0,0,1,10,10.91,34.94,34.94,0,0,1,3.73,16.47,35.6,35.6,0,0,1-3.73,16.58,27.18,27.18,0,0,1-10,11,26.8,26.8,0,0,1-14.14,3.82,25.08,25.08,0,0,1-11.65-2.62,21.18,21.18,0,0,1-7.8-6.76v26.62H313v-79h19.34Zm27.6,21.71q0-7-4.07-10.91a13.24,13.24,0,0,0-9.84-4,13.46,13.46,0,0,0-9.84,4q-4,4-4,11t4,11a14,14,0,0,0,19.68,0C358.58,391.14,359.94,387.44,359.94,382.78Z" transform="translate(-12.26 -291.77)"></path><path class="cls-1" d="M449.26,381.91a45.15,45.15,0,0,1-.34,5.45H405.15q.45,5.67,3.73,8.73a12.17,12.17,0,0,0,8.26,3q7.23,0,10.06-5.9h20.59A26.59,26.59,0,0,1,442,404a27.9,27.9,0,0,1-10.29,7.52,34.29,34.29,0,0,1-13.91,2.73,34.83,34.83,0,0,1-16.52-3.82A27.7,27.7,0,0,1,390,399.47a32.76,32.76,0,0,1-4.07-16.58,33.42,33.42,0,0,1,4-16.58,27.58,27.58,0,0,1,11.31-10.91,35,35,0,0,1,16.63-3.82,34.66,34.66,0,0,1,16.28,3.71,26.81,26.81,0,0,1,11.09,10.58A30.92,30.92,0,0,1,449.26,381.91ZM429.47,377a9.43,9.43,0,0,0-3.4-7.64,14,14,0,0,0-16.74-.11,12.14,12.14,0,0,0-4.07,7.75Z" transform="translate(-12.26 -291.77)"></path><path class="cls-1" d="M497.92,351.8q11.08,0,17.64,7t6.68,19v35.57H503V380.27q0-6.11-3.28-9.49a13.21,13.21,0,0,0-17.65,0q-3.27,3.38-3.28,9.49v33.06H459.46V352.45H478.8v8.07a19.8,19.8,0,0,1,7.92-6.32A25.46,25.46,0,0,1,497.92,351.8Z" transform="translate(-12.26 -291.77)"></path><path class="cls-1" d="M564.41,414.09a42.13,42.13,0,0,1-15.61-2.73,25.74,25.74,0,0,1-11.09-8.07,21.82,21.82,0,0,1-4.3-12.87H554a9.66,9.66,0,0,0,3.06,6.54,10.16,10.16,0,0,0,6.78,2.19,11.1,11.1,0,0,0,6.79-1.86,6.45,6.45,0,0,0,2.49-5.35,6.07,6.07,0,0,0-2-4.69,15.23,15.23,0,0,0-4.86-3.05,75.75,75.75,0,0,0-8.15-2.73,91,91,0,0,1-12.55-4.58,23,23,0,0,1-8.37-6.77q-3.51-4.47-3.51-11.67,0-10.69,8-16.69t20.93-6.11q13.11,0,21.15,6.11t8.59,16.8H571.42a7.59,7.59,0,0,0-2.83-5.78,10,10,0,0,0-6.67-2.18,8.35,8.35,0,0,0-5.66,1.85,6.22,6.22,0,0,0-2.15,5.13,6.4,6.4,0,0,0,3.62,5.78A61.13,61.13,0,0,0,569,367.83a104.75,104.75,0,0,1,12.44,4.8,23.38,23.38,0,0,1,8.37,6.66q3.51,4.36,3.51,11.24a21.22,21.22,0,0,1-3.51,11.89,23.47,23.47,0,0,1-10,8.51A35.31,35.31,0,0,1,564.41,414.09Z" transform="translate(-12.26 -291.77)"></path><path class="cls-1" d="M664.76,381.91a45.15,45.15,0,0,1-.34,5.45H620.65q.45,5.67,3.73,8.73a12.17,12.17,0,0,0,8.26,3q7.23,0,10.06-5.9h20.59A26.59,26.59,0,0,1,657.52,404a27.9,27.9,0,0,1-10.29,7.52,34.29,34.29,0,0,1-13.91,2.73,34.83,34.83,0,0,1-16.52-3.82,27.7,27.7,0,0,1-11.31-10.91,32.76,32.76,0,0,1-4.07-16.58,33.42,33.42,0,0,1,4-16.58,27.58,27.58,0,0,1,11.31-10.91,35,35,0,0,1,16.63-3.82,34.66,34.66,0,0,1,16.28,3.71,26.81,26.81,0,0,1,11.09,10.58A30.92,30.92,0,0,1,664.76,381.91ZM645,377a9.46,9.46,0,0,0-3.4-7.64,14,14,0,0,0-16.74-.11,12.09,12.09,0,0,0-4.07,7.75Z" transform="translate(-12.26 -291.77)"></path><path class="cls-1" d="M671.12,382.78a35.65,35.65,0,0,1,3.62-16.47,26.58,26.58,0,0,1,24.2-14.73,24.63,24.63,0,0,1,11.65,2.62,19.59,19.59,0,0,1,7.8,6.87v-8.62h19.35v60.88H718.39v-8.62a20.42,20.42,0,0,1-7.91,6.87,24.63,24.63,0,0,1-11.65,2.62,26.64,26.64,0,0,1-14-3.82,27.91,27.91,0,0,1-10.06-11A36.32,36.32,0,0,1,671.12,382.78Zm47.27.11q0-7-4.07-11a13.09,13.09,0,0,0-9.72-4,13.46,13.46,0,0,0-9.84,4q-4,3.93-4,10.91c0,4.66,1.32,8.36,4,11.13a13.46,13.46,0,0,0,9.84,4,13.09,13.09,0,0,0,9.72-4Q718.4,389.88,718.39,382.89Z" transform="translate(-12.26 -291.77)"></path><path class="cls-2" d="M178.73,375A83.24,83.24,0,1,1,95.5,291.77,83.24,83.24,0,0,1,178.73,375Z" transform="translate(-12.26 -291.77)"></path><path class="cls-3" d="M53.33,377.8l.36-.57,21.65-33.87a.74.74,0,0,1,1.3.09c3.61,8.11,6.74,18.19,5.27,24.47a38.16,38.16,0,0,1-4.25,9.31c-.25.47-.53.93-.82,1.38a.72.72,0,0,1-.61.32H54A.73.73,0,0,1,53.33,377.8Z" transform="translate(-12.26 -291.77)"></path><path class="cls-3" d="M149.84,384.09v5.36a.76.76,0,0,1-.47.7c-1.67.72-7.41,3.36-9.79,6.67-6.09,8.48-10.75,20.59-21.14,20.59H75.06a27.88,27.88,0,0,1-27.84-27.92V389a.74.74,0,0,1,.75-.74H72.15a.82.82,0,0,1,.79.91,8.12,8.12,0,0,0,.86,4.64,8.51,8.51,0,0,0,7.63,4.74h12V389.2H81.56A.77.77,0,0,1,81,388l.43-.63c1.12-1.59,2.71-4.07,4.3-6.88a53.5,53.5,0,0,0,3-6c.17-.37.31-.74.44-1.11.23-.65.47-1.26.65-1.87s.3-1.05.44-1.55a24.25,24.25,0,0,0,.57-5.46c0-.74,0-1.52-.1-2.26s-.14-1.63-.24-2.44-.2-1.43-.33-2.17c-.17-1.09-.41-2.17-.69-3.25l-.09-.41c-.21-.75-.38-1.46-.62-2.2-.67-2.34-1.45-4.61-2.27-6.74-.3-.85-.64-1.66-1-2.47-.51-1.22-1-2.33-1.49-3.39-.24-.48-.45-.91-.65-1.36s-.47-1-.71-1.48-.37-.71-.51-1.06l-1.46-2.7a.48.48,0,0,1,.54-.69l9.15,2.48h.06l1.21.33,1.32.38.49.13v-5.43a4.73,4.73,0,0,1,4.7-4.76,4.67,4.67,0,0,1,3.33,1.39,4.83,4.83,0,0,1,1.37,3.37v8.07l1,.27a.91.91,0,0,1,.22.11c.24.18.58.45,1,.77s.71.61,1.15.95c.88.71,1.94,1.63,3.09,2.68.31.26.61.54.88.81,1.49,1.39,3.16,3,4.75,4.81.44.5.88,1,1.32,1.55s.92,1.09,1.33,1.63c.54.72,1.12,1.46,1.62,2.24.24.37.52.74.75,1.11.65,1,1.22,2,1.77,3,.23.47.47,1,.67,1.49a21.63,21.63,0,0,1,1.4,4.13,5.09,5.09,0,0,1,.19.91v.07a6.79,6.79,0,0,1,.17,1.29,13.67,13.67,0,0,1-.24,4.27,13.3,13.3,0,0,1-.5,1.79,18.18,18.18,0,0,1-.68,1.76,24.73,24.73,0,0,1-1.83,3.49c-.23.41-.51.84-.78,1.25s-.61.85-.88,1.25-.78,1-1.19,1.53a16.9,16.9,0,0,1-1.16,1.46c-.57.67-1.12,1.31-1.69,1.93-.34.4-.71.81-1.08,1.18s-.75.78-1.09,1.12c-.57.57-1,1-1.45,1.38l-1,.87a.74.74,0,0,1-.5.19H102.8v9.34H112a8.57,8.57,0,0,0,5.58-2.06,66.26,66.26,0,0,0,5.67-5.57.68.68,0,0,1,.35-.22l25.32-7.32A.75.75,0,0,1,149.84,384.09Z" transform="translate(-12.26 -291.77)"></path></svg> 